<svg width="81" height="81" viewBox="0 0 81 81" fill="none" xmlns="http://www.w3.org/2000/svg">
<g id="cocktail.svg" clip-path="url(#clip0_375_3166)">
<path id="Vector" d="M41.0784 73.9003C41.0784 71.5548 41.7251 65.1959 42.347 59.6235C42.2334 59.6556 42.1212 59.6865 42.0118 59.7153C40.0117 60.241 37.9059 60.241 35.9059 59.7153C35.7965 59.6865 35.6842 59.6556 35.5706 59.6235C36.1925 65.1978 36.8394 71.5595 36.8394 73.9063V73.917C36.8394 74.7848 36.3367 75.5742 35.5503 75.941L26.9933 79.9337C26.5626 80.1346 26.7059 80.7801 27.1811 80.7801H50.7504C51.225 80.7801 51.3692 80.1362 50.9398 79.9343C48.5712 78.8215 44.4634 76.8942 42.3734 75.9268C41.5834 75.5615 41.0784 74.7704 41.0784 73.9003Z" fill="#D6E5E2"/>
<path id="Vector_2" d="M51.076 28.0723C50.8754 21.3493 52.7165 15.6851 53.6359 13.3022C53.8604 12.7203 53.4318 12.095 52.8082 12.095H25.109C24.4852 12.095 24.0568 12.7203 24.2813 13.3022C25.2007 15.685 27.0418 21.3493 26.8412 28.0723C26.5749 36.9929 19.6665 47.7776 25.3176 54.9675C28.7567 59.3431 33.0621 61.1543 35.9056 61.902C37.9057 62.4278 40.0115 62.4278 42.0117 61.902C44.8552 61.1543 49.1606 59.3431 52.5996 54.9675C58.2506 47.7778 51.3423 36.9931 51.076 28.0723Z" fill="#E5F9F6"/>
<path id="Vector_3" d="M51.0763 28.0723C50.8757 21.3493 52.7168 15.6851 53.6362 13.3022C53.8607 12.7203 53.4321 12.095 52.8085 12.095H45.2418C45.2418 12.095 41.9132 19.1517 42.1795 28.0723C42.4457 36.9929 49.3541 47.7776 43.703 54.9675C40.788 58.6761 37.2518 60.5415 34.5098 61.4797C35.0035 61.6486 35.472 61.7879 35.9059 61.902C37.906 62.4279 40.0118 62.4279 42.012 61.902C44.8554 61.1543 49.1609 59.3431 52.5999 54.9675C58.2509 47.7778 51.3426 36.9931 51.0763 28.0723Z" fill="#D7E0DC"/>
<path id="Vector_4" d="M25.7273 17.9573C26.3977 20.6992 26.9565 24.2101 26.8412 28.0721C26.5749 36.9927 19.6665 47.7774 25.3176 54.9673C28.7567 59.3429 33.0621 61.1541 35.9056 61.9018C37.9057 62.4276 40.0115 62.4276 42.0117 61.9018C44.8552 61.1541 49.1606 59.3429 52.5996 54.9673C58.2507 47.7774 51.3423 36.9927 51.076 28.0721C50.9607 24.2102 51.5195 20.6992 52.1899 17.9573H25.7273Z" fill="#FED130"/>
<path id="Vector_5" d="M29.422 4.76308C25.509 2.01089 18.66 2.10136 16.4022 2.21558C15.9759 2.23714 15.64 2.58417 15.6322 3.01089C15.5912 5.27105 15.7228 12.1196 18.6003 15.9412C25.0512 24.5085 32.1961 18.276 32.1961 18.276C32.1961 18.276 38.1939 10.9329 29.422 4.76308Z" fill="#77D057"/>
<path id="Vector_6" d="M31.2355 11.0828C31.3854 10.4386 30.9846 9.79467 30.3402 9.64498C29.6957 9.49498 29.0521 9.89592 28.9024 10.5404L28.3558 12.8914L26.5815 11.1736L27.2454 8.31811C27.3952 7.67373 26.9944 7.02998 26.3501 6.88014C25.706 6.72998 25.0619 7.13107 24.9123 7.77545L24.574 9.23014L22.9873 7.69404L23.3446 6.15732C23.4944 5.51295 23.0937 4.8692 22.4493 4.71936C21.8049 4.56936 21.161 4.97029 21.0115 5.61467L20.9799 5.75061L17.2946 2.18311C16.9501 2.19139 16.6474 2.20326 16.4019 2.21561C15.9757 2.23717 15.6398 2.5842 15.6319 3.01092C15.6274 3.2567 15.6254 3.55967 15.6283 3.9042L19.3137 7.47186L19.1785 7.50795C18.5394 7.67842 18.1596 8.33498 18.3302 8.97404C18.4732 9.50982 18.9573 9.86326 19.4866 9.86326C19.589 9.86326 19.6929 9.85014 19.7963 9.82232L21.3212 9.41529L22.9077 10.9512L21.4648 11.3364C20.8257 11.507 20.4458 12.1634 20.6165 12.8025C20.7594 13.3381 21.2435 13.6915 21.7729 13.6915C21.8752 13.6915 21.9791 13.6783 22.0826 13.6506L24.9151 12.8945L26.6619 14.5856L24.4015 15.189C23.7624 15.3597 23.3826 16.0161 23.5532 16.6551C23.6962 17.1909 24.1802 17.5444 24.7096 17.5444C24.8119 17.5444 24.9158 17.5311 25.0193 17.5034L28.6693 16.529L31.2021 18.9811C31.8343 18.5905 32.1957 18.2758 32.1957 18.2758C32.1957 18.2758 32.4985 17.9044 32.8683 17.2598L30.363 14.8344L31.2355 11.0828Z" fill="#68B543"/>
<path id="Vector_7" d="M33.3172 11.6476C33.3114 11.6476 33.3057 11.6476 33.2999 11.6474C32.6385 11.6382 32.1099 11.0943 32.1193 10.4329C32.1647 7.21384 33.0205 4.94259 34.6627 3.68259C36.5552 2.23056 38.7316 2.75868 38.8233 2.78181C39.4646 2.94399 39.8532 3.5954 39.691 4.23665C39.5296 4.87446 38.8847 5.26228 38.2469 5.10696C38.1788 5.09149 37.0497 4.85337 36.0985 5.60056C35.0961 6.38806 34.5483 8.07071 34.5144 10.4668C34.5054 11.1223 33.9708 11.6476 33.3172 11.6476Z" fill="#772424"/>
<path id="Vector_8" d="M32.5694 17.9556C35.546 17.9556 37.9591 15.5426 37.9591 12.566C37.9591 9.58931 35.546 7.17627 32.5694 7.17627C29.5927 7.17627 27.1797 9.58931 27.1797 12.566C27.1797 15.5426 29.5927 17.9556 32.5694 17.9556Z" fill="#FC502A"/>
<path id="Vector_9" d="M57.2656 1.36397C56.693 1.03241 55.9605 1.22741 55.6287 1.79976L46.2656 17.9573H49.0342L57.7012 3.00085C58.033 2.42866 57.838 1.69569 57.2656 1.36397Z" fill="#65DBEF"/>
<path id="Vector_10" d="M56.9767 0.781442L42.7643 1.5816C42.4418 1.59972 42.3107 2.00363 42.5593 2.20972C49.0056 7.55457 56.4254 11.6018 64.4092 14.1277C64.7171 14.2252 64.9857 13.8963 64.8264 13.6153L57.8045 1.233C57.637 0.93738 57.316 0.76238 56.9767 0.781442Z" fill="#FF644A"/>
<path id="Vector_11" d="M64.8265 13.6154L57.8046 1.23303C57.6369 0.937401 57.316 0.762245 56.9766 0.781464L54.0851 0.944276C51.6096 1.08365 50.1419 3.77459 51.3649 5.93115L53.3732 9.47256C56.8933 11.3557 60.5857 12.9182 64.4096 14.1279C64.7174 14.2252 64.9857 13.8963 64.8265 13.6154Z" fill="#E52D15"/>
<path id="Vector_12" d="M54.6715 45.6501C54.6048 45.0802 54.517 44.5043 54.413 43.9237C54.3351 43.4882 54.248 43.0501 54.1537 42.6098C53.9652 41.7293 53.748 40.8406 53.518 39.9477C53.4413 39.6502 53.3634 39.3523 53.2845 39.054C53.1266 38.4574 52.9654 37.8599 52.8055 37.2627C52.7255 36.9642 52.646 36.6656 52.5673 36.3673C52.4885 36.069 52.4109 35.7709 52.3346 35.4732C52.2584 35.1756 52.1837 34.8782 52.111 34.5815C51.5662 32.3562 51.1388 30.1631 51.0765 28.0723C51.0698 27.8449 51.0657 27.619 51.0634 27.3941C51.0626 27.3212 51.063 27.249 51.0629 27.1762C51.0624 27.0245 51.0621 26.8731 51.0635 26.7226C51.0643 26.6377 51.066 26.5535 51.0674 26.4692C51.0698 26.3309 51.0726 26.1929 51.0765 26.0557C51.079 25.9695 51.0818 25.8837 51.0849 25.7979C51.0898 25.6618 51.0954 25.5263 51.1018 25.3915C51.1057 25.309 51.1096 25.2265 51.114 25.1445C51.1216 25.0027 51.1302 24.8621 51.1395 24.7218C51.1441 24.6493 51.1485 24.5765 51.1537 24.5043C51.1655 24.3384 51.1787 24.174 51.1926 24.0102C51.1963 23.9659 51.1996 23.9209 51.2035 23.8767C51.2224 23.6626 51.2429 23.4504 51.2651 23.2401C51.2651 23.2398 51.2652 23.2393 51.2652 23.239C51.287 23.0329 51.3105 22.8292 51.3351 22.6268C51.3407 22.5806 51.3468 22.5349 51.3526 22.4888C51.3724 22.3313 51.3927 22.1748 51.4141 22.0196C51.4215 21.9668 51.429 21.9145 51.4365 21.8618C51.4577 21.7124 51.4795 21.5641 51.5021 21.4173C51.5098 21.3676 51.5174 21.3181 51.5252 21.2687C51.5495 21.1151 51.5743 20.9632 51.5999 20.8124C51.6065 20.7737 51.6129 20.7348 51.6196 20.6963C51.6495 20.5234 51.6801 20.3523 51.7115 20.1832C51.7141 20.1692 51.7166 20.1549 51.7193 20.1409C51.8637 19.3695 52.0234 18.6401 52.1902 17.9576V17.9573H43.2929C42.6226 20.699 42.0641 24.2106 42.1795 28.0721C42.4457 36.9927 49.3541 47.7774 43.703 54.9673C40.788 58.6759 37.2518 60.5413 34.5098 61.4795C34.5104 61.4796 34.5109 61.4798 34.5115 61.4801C34.626 61.5193 34.739 61.5566 34.8507 61.5926C34.8741 61.6001 34.8973 61.6074 34.9204 61.6148C35.009 61.6431 35.0968 61.6702 35.1834 61.6967C35.213 61.7056 35.2426 61.7146 35.272 61.7234C35.3535 61.7477 35.434 61.771 35.5135 61.7938C35.5418 61.802 35.5704 61.8102 35.5984 61.8181C35.7024 61.8473 35.8051 61.8752 35.9055 61.9016C36.1555 61.9674 36.4073 62.0249 36.6601 62.0742C36.913 62.1234 37.1671 62.1645 37.4221 62.1974C38.952 62.3946 40.5115 62.296 42.0115 61.9016C42.1893 61.8549 42.3726 61.804 42.5612 61.7487C42.7734 61.6863 42.9929 61.6176 43.2173 61.5432C44.451 61.1346 45.8566 60.5367 47.3005 59.6635C47.3895 59.6098 47.4785 59.5549 47.5676 59.499C47.7099 59.4098 47.8524 59.3179 47.9951 59.2232C48.1229 59.1384 48.2509 59.0515 48.379 58.9621C48.7679 58.6907 49.157 58.3993 49.5438 58.0838C50.5963 57.2256 51.6321 56.1977 52.5993 54.9671C53.0407 54.4054 53.4055 53.8218 53.7029 53.2188C53.8218 52.9776 53.9299 52.7334 54.0279 52.4862C54.0768 52.3626 54.1232 52.2382 54.1671 52.1132C54.3868 51.4879 54.5443 50.8449 54.6491 50.1868C54.712 49.792 54.7559 49.3915 54.7826 48.9862C54.8004 48.716 54.8107 48.4437 54.814 48.1693C54.8248 47.3462 54.7716 46.5049 54.6715 45.6501Z" fill="#EDBA18"/>
</g>
<defs>
<clipPath id="clip0_375_3166">
<rect width="80" height="80" fill="white" transform="translate(0.25 0.780029)"/>
</clipPath>
</defs>
</svg>
