<svg width="81" height="81" viewBox="0 0 81 81" fill="none" xmlns="http://www.w3.org/2000/svg">
<g id="corporate.svg" clip-path="url(#clip0_375_3102)">
<g id="Group">
<path id="Vector" d="M12.8848 40.1336C12.2376 40.1336 11.7129 39.6091 11.7129 38.9618V33.7649C11.7129 33.1175 12.2376 32.593 12.8848 32.593C13.532 32.593 14.0566 33.1175 14.0566 33.7649V38.9618C14.0566 39.609 13.532 40.1336 12.8848 40.1336Z" fill="#62A4FB"/>
<path id="Vector_2" d="M0.75 46.8835V76.2254C0.75 76.609 1.06094 76.9199 1.44453 76.9199H24.3248C24.7084 76.9199 25.0194 76.609 25.0194 76.2254V46.8835C25.0194 46.4999 24.7084 46.189 24.3248 46.189H1.44453C1.06094 46.189 0.75 46.4999 0.75 46.8835Z" fill="#BED9FD"/>
<path id="Vector_3" d="M24.3245 46.189H19.8896C20.2732 46.189 20.5842 46.4999 20.5842 46.8835V76.2254C20.5842 76.609 20.2732 76.9199 19.8896 76.9199H24.3245C24.7081 76.9199 25.019 76.609 25.019 76.2254V46.8835C25.019 46.4999 24.7081 46.189 24.3245 46.189Z" fill="#9EC8FC"/>
<g id="Group_2">
<path id="Vector_4" d="M17.4839 71.0518H8.28516C7.63797 71.0518 7.11328 70.5272 7.11328 69.8799C7.11328 69.2325 7.63797 68.708 8.28516 68.708H17.4839C18.1311 68.708 18.6558 69.2325 18.6558 69.8799C18.6558 70.5272 18.1311 71.0518 17.4839 71.0518Z" fill="#62A4FB"/>
<path id="Vector_5" d="M17.4839 62.7263H8.28516C7.63797 62.7263 7.11328 62.2018 7.11328 61.5544C7.11328 60.9071 7.63797 60.3826 8.28516 60.3826H17.4839C18.1311 60.3826 18.6558 60.9071 18.6558 61.5544C18.6558 62.2018 18.1311 62.7263 17.4839 62.7263Z" fill="#62A4FB"/>
<path id="Vector_6" d="M17.4839 54.4006H8.28516C7.63797 54.4006 7.11328 53.8761 7.11328 53.2288C7.11328 52.5814 7.63797 52.0569 8.28516 52.0569H17.4839C18.1311 52.0569 18.6558 52.5814 18.6558 53.2288C18.6558 53.8761 18.1311 54.4006 17.4839 54.4006Z" fill="#62A4FB"/>
</g>
<path id="Vector_7" d="M6.58398 46.1888V39.508C6.58398 39.0285 6.97273 38.6399 7.45211 38.6399H18.3165C18.796 38.6399 19.1846 39.0286 19.1846 39.508V46.1888H6.58398Z" fill="#9EC8FC"/>
<path id="Vector_8" d="M18.3167 38.6399H13.8818C14.3614 38.6399 14.75 39.0286 14.75 39.508V46.1888H19.1848V39.5082C19.1848 39.0286 18.7962 38.6399 18.3167 38.6399Z" fill="#80B6FC"/>
<path id="Vector_9" d="M80.2221 50.0259H46.347C46.0556 50.0259 45.8193 49.7897 45.8193 49.4983V23.2008C45.8193 22.9093 46.0556 22.6731 46.347 22.6731H80.2221C80.5135 22.6731 80.7498 22.9093 80.7498 23.2008V49.4984C80.7498 49.7897 80.5135 50.0259 80.2221 50.0259Z" fill="#DDEBFD"/>
<path id="Vector_10" d="M80.2221 46.7977H46.347C46.0556 46.7977 45.8193 46.5614 45.8193 46.27V49.4985C45.8193 49.7899 46.0556 50.0261 46.347 50.0261H80.2221C80.5135 50.0261 80.7498 49.7899 80.7498 49.4985V46.27C80.7498 46.5613 80.5135 46.7977 80.2221 46.7977Z" fill="#BED9FD"/>
<path id="Vector_11" d="M58.4219 44.229C57.7747 44.229 57.25 43.7045 57.25 43.0571V41.2507C57.25 40.6034 57.7747 40.0789 58.4219 40.0789C59.0691 40.0789 59.5938 40.6034 59.5938 41.2507V43.0571C59.5938 43.7043 59.0691 44.229 58.4219 44.229Z" fill="#62A4FB"/>
<path id="Vector_12" d="M63.8125 44.229C63.1653 44.229 62.6406 43.7045 62.6406 43.0571V38.4365C62.6406 37.7892 63.1653 37.2646 63.8125 37.2646C64.4597 37.2646 64.9844 37.7892 64.9844 38.4365V43.0571C64.9844 43.7043 64.4597 44.229 63.8125 44.229Z" fill="#62A4FB"/>
<path id="Vector_13" d="M69.2031 44.2289C68.5559 44.2289 68.0312 43.7044 68.0312 43.0571V35.4463C68.0312 34.7989 68.5559 34.2744 69.2031 34.2744C69.8503 34.2744 70.375 34.7989 70.375 35.4463V43.0571C70.375 43.7043 69.8503 44.2289 69.2031 44.2289Z" fill="#62A4FB"/>
<path id="Vector_14" d="M58.423 36.6184C58.0059 36.6184 57.602 36.3949 57.3902 36.002C57.0835 35.4321 57.2966 34.7213 57.8666 34.4146L68.648 28.6102C69.2177 28.3029 69.9285 28.5166 70.2354 29.0865C70.5421 29.6563 70.329 30.3671 69.759 30.6738L58.9776 36.4782C58.8009 36.5734 58.6105 36.6184 58.423 36.6184Z" fill="#E27C48"/>
<path id="Vector_15" d="M60.3781 50.2878L57.0136 61.8459L48.7901 54.2531C48.3903 53.884 47.8664 53.6656 47.3221 53.6649H27.4696C25.0523 53.6649 23.0928 55.6115 23.0928 58.0288V76.0742C23.0928 76.5412 23.4714 76.9198 23.9384 76.9198H47.3228C47.7898 76.9198 48.1684 76.5412 48.1684 76.0742V61.6295L55.609 68.4993C57.6201 70.3562 60.8821 69.4499 61.6475 66.8218L65.9861 51.9206C66.437 50.372 65.547 48.751 63.9982 48.3003C62.4498 47.8495 60.8287 48.7393 60.3781 50.2878Z" fill="#E27C48"/>
<path id="Vector_16" d="M44.7404 20.5365H39.3741C38.6443 20.5365 37.9346 20.2962 37.3549 19.8526L33.4576 16.8703C32.6045 16.2174 31.3729 16.8257 31.3729 17.8999V19.2754C31.3729 19.4328 31.1926 19.5218 31.0676 19.4262L27.7273 16.8701C26.8741 16.2173 25.6426 16.8256 25.6426 17.8998V29.0854C25.6426 33.202 28.9796 36.539 33.0962 36.539H46.0824C49.0904 36.539 51.5288 34.1006 51.5288 31.0926V27.3248C51.5288 23.5759 48.4896 20.5365 44.7404 20.5365Z" fill="#785252"/>
<path id="Vector_17" d="M37.1444 55.5085L35.0842 66.5768C35.0422 66.8026 35.1122 67.0348 35.2719 67.1998L38.0775 70.0978C38.3561 70.3856 38.8177 70.3856 39.0964 70.0978L41.9021 67.1998C42.0617 67.0348 42.1317 66.8026 42.0897 66.5768L40.0296 55.5085H37.1444Z" fill="#4980AC"/>
<path id="Vector_18" d="M34.6943 44.138V53.8063C34.6943 54.235 34.8926 54.6397 35.2315 54.9025L37.7373 56.8455C38.2376 57.2334 38.937 57.2334 39.4373 56.8455L41.9431 54.9025C42.282 54.6397 42.4803 54.235 42.4803 53.8063V44.138C42.4803 42.4709 41.1289 41.1194 39.4618 41.1194H37.7129C36.0457 41.1194 34.6943 42.4709 34.6943 44.138Z" fill="#FFCDBE"/>
<path id="Vector_19" d="M39.4617 41.1194H37.7128C36.0457 41.1194 34.6943 42.4708 34.6943 44.138V51.1783C35.7336 51.6699 36.8948 51.9459 38.1207 51.9459H39.0539C40.2798 51.9459 41.4411 51.6699 42.4803 51.1783V44.138C42.4803 42.4708 41.1289 41.1194 39.4617 41.1194Z" fill="#EBAE9D"/>
<path id="Vector_20" d="M24.2783 36.5391C24.2783 38.2489 25.7775 39.635 27.6271 39.635H49.548C51.3974 39.635 52.8968 38.2489 52.8968 36.5391C52.8968 34.8292 51.3975 33.4431 49.548 33.4431H27.6271C25.7777 33.4431 24.2783 34.8292 24.2783 36.5391Z" fill="#FFCDBE"/>
<path id="Vector_21" d="M30.0977 27.9468V40.7256C30.0977 45.157 33.69 48.7491 38.1213 48.7491H39.0544C43.4858 48.7491 47.078 45.1568 47.078 40.7256V32.8767C47.078 29.8426 44.6184 27.3831 41.5844 27.3831H30.6614C30.35 27.3831 30.0977 27.6354 30.0977 27.9468Z" fill="#FFCDBE"/>
<path id="Vector_22" d="M38.7529 44.5847H38.4213C37.3832 44.5847 36.3968 44.1835 35.644 43.4546C35.179 43.0044 35.1668 42.2625 35.6169 41.7977C36.0669 41.3324 36.8088 41.3204 37.274 41.7707C37.5874 42.074 37.9949 42.2411 38.4213 42.2411H38.7529C39.1793 42.2411 39.5868 42.0741 39.9001 41.7707C40.3652 41.3204 41.1071 41.3325 41.5571 41.7975C42.0072 42.2627 41.9952 43.0046 41.5302 43.4546C40.7774 44.1833 39.791 44.5847 38.7529 44.5847Z" fill="#E09380"/>
<path id="Vector_23" d="M30.1562 76.9197V63.8042C30.1562 63.1569 29.6316 62.6323 28.9844 62.6323C28.3372 62.6323 27.8125 63.1569 27.8125 63.8042V76.9197H30.1562Z" fill="#DD552D"/>
<path id="Vector_24" d="M60.3781 50.2879L59.3311 53.8845L64.9393 55.5171L65.9861 51.9206C66.4368 50.372 65.5468 48.7512 63.9982 48.3003C62.4498 47.8495 60.8289 48.7393 60.3781 50.2879Z" fill="#FFCDBE"/>
<path id="Vector_25" d="M63.2843 25.7536C69.1146 25.7536 73.841 21.0272 73.841 15.1969C73.841 9.36654 69.1146 4.64014 63.2843 4.64014C57.4539 4.64014 52.7275 9.36654 52.7275 15.1969C52.7275 21.0272 57.4539 25.7536 63.2843 25.7536Z" fill="#F8E883"/>
<path id="Vector_26" d="M68.7473 6.16211C70.053 7.91898 70.826 10.0952 70.826 12.4524C70.826 18.2827 66.0996 23.0091 60.2693 23.0091C58.2698 23.0091 56.4004 22.453 54.8066 21.4874C56.7305 24.0762 59.8113 25.7538 63.2846 25.7538C69.1149 25.7538 73.8413 21.0274 73.8413 15.1971C73.8413 11.3662 71.8007 8.01211 68.7473 6.16211Z" fill="#F3D332"/>
<path id="Vector_27" d="M60.2695 11.1747V19.2193C60.2695 19.7477 60.8491 20.0713 61.2991 19.7941L67.8269 15.7719C68.2548 15.5082 68.2548 14.8858 67.8269 14.6222L61.2991 10.6001C60.8492 10.3227 60.2695 10.6463 60.2695 11.1747Z" fill="#DF646E"/>
</g>
</g>
<defs>
<clipPath id="clip0_375_3102">
<rect width="80" height="80" fill="white" transform="translate(0.75 0.780029)"/>
</clipPath>
</defs>
</svg>
