<svg width="50" height="51" viewBox="0 0 50 51" fill="none" xmlns="http://www.w3.org/2000/svg">
<g clip-path="url(#clip0_375_3771)">
<path d="M35.7444 50.5552H4.3002C2.72783 50.5552 1.45312 49.2805 1.45312 47.7081V3.40225C1.45312 1.82988 2.72773 0.555176 4.3002 0.555176H35.7444C37.3168 0.555176 38.5915 1.82988 38.5915 3.40225V47.7081C38.5915 49.2805 37.3169 50.5552 35.7444 50.5552Z" fill="#FFE8D2"/>
<path d="M35.7438 0.555176H33.1179V13.5052C33.1179 30.696 19.176 44.6319 1.97773 44.6319H1.45312V47.7087C1.45312 49.2808 2.72803 50.5552 4.30078 50.5552H35.7438C37.3166 50.5552 38.5915 49.2808 38.5915 47.7087V3.40166C38.5915 1.82959 37.3165 0.555176 35.7438 0.555176Z" fill="#F7D4AD"/>
<path d="M34.4891 35.106H8.13066C7.71221 35.106 7.37305 34.7669 7.37305 34.3486C7.37305 33.9304 7.71221 33.5913 8.13066 33.5913H34.4892C34.9076 33.5913 35.2468 33.9304 35.2468 34.3486C35.2468 34.7669 34.9076 35.106 34.4891 35.106Z" fill="#E2A876"/>
<path d="M34.4891 39.1743H8.13066C7.71221 39.1743 7.37305 38.8353 7.37305 38.417C7.37305 37.9987 7.71221 37.6597 8.13066 37.6597H34.4892C34.9076 37.6597 35.2468 37.9987 35.2468 38.417C35.2468 38.8353 34.9076 39.1743 34.4891 39.1743Z" fill="#E2A876"/>
<path d="M34.4891 43.2427H8.13066C7.71221 43.2427 7.37305 42.9036 7.37305 42.4854C7.37305 42.0671 7.71221 41.728 8.13066 41.728H34.4892C34.9076 41.728 35.2468 42.0671 35.2468 42.4854C35.2468 42.9037 34.9076 43.2427 34.4891 43.2427Z" fill="#E2A876"/>
<path d="M34.4891 47.311H8.13066C7.71221 47.311 7.37305 46.972 7.37305 46.5537C7.37305 46.1354 7.71221 45.7964 8.13066 45.7964H34.4892C34.9076 45.7964 35.2468 46.1354 35.2468 46.5537C35.2468 46.972 34.9076 47.311 34.4891 47.311Z" fill="#E2A876"/>
<path d="M34.4891 26.9688H8.13066C7.71221 26.9688 7.37305 26.6297 7.37305 26.2114C7.37305 25.7932 7.71221 25.4541 8.13066 25.4541H34.4892C34.9076 25.4541 35.2468 25.7932 35.2468 26.2114C35.2468 26.6297 34.9076 26.9688 34.4891 26.9688Z" fill="#E2A876"/>
<path d="M34.4891 31.0371H8.13066C7.71221 31.0371 7.37305 30.698 7.37305 30.2798C7.37305 29.8615 7.71221 29.5225 8.13066 29.5225H34.4892C34.9076 29.5225 35.2468 29.8615 35.2468 30.2798C35.2468 30.6981 34.9076 31.0371 34.4891 31.0371Z" fill="#E2A876"/>
<path d="M5.34355 35.1055C5.76198 35.1055 6.10117 34.7664 6.10117 34.3481C6.10117 33.9299 5.76198 33.5908 5.34355 33.5908C4.92513 33.5908 4.58594 33.9299 4.58594 34.3481C4.58594 34.7664 4.92513 35.1055 5.34355 35.1055Z" fill="#E2A876"/>
<path d="M5.34355 26.9688C5.76198 26.9688 6.10117 26.6297 6.10117 26.2114C6.10117 25.7932 5.76198 25.4541 5.34355 25.4541C4.92513 25.4541 4.58594 25.7932 4.58594 26.2114C4.58594 26.6297 4.92513 26.9688 5.34355 26.9688Z" fill="#E2A876"/>
<path d="M5.34355 31.0371C5.76198 31.0371 6.10117 30.698 6.10117 30.2798C6.10117 29.8615 5.76198 29.5225 5.34355 29.5225C4.92513 29.5225 4.58594 29.8615 4.58594 30.2798C4.58594 30.698 4.92513 31.0371 5.34355 31.0371Z" fill="#E2A876"/>
<path d="M5.34355 39.1738C5.76198 39.1738 6.10117 38.8348 6.10117 38.4165C6.10117 37.9982 5.76198 37.6592 5.34355 37.6592C4.92513 37.6592 4.58594 37.9982 4.58594 38.4165C4.58594 38.8348 4.92513 39.1738 5.34355 39.1738Z" fill="#E2A876"/>
<path d="M5.34355 43.2427C5.76198 43.2427 6.10117 42.9036 6.10117 42.4854C6.10117 42.0671 5.76198 41.728 5.34355 41.728C4.92513 41.728 4.58594 42.0671 4.58594 42.4854C4.58594 42.9036 4.92513 43.2427 5.34355 43.2427Z" fill="#E2A876"/>
<path d="M5.34355 47.311C5.76198 47.311 6.10117 46.972 6.10117 46.5537C6.10117 46.1355 5.76198 45.7964 5.34355 45.7964C4.92513 45.7964 4.58594 46.1355 4.58594 46.5537C4.58594 46.972 4.92513 47.311 5.34355 47.311Z" fill="#E2A876"/>
<path d="M23.7821 21.4305H16.2287C15.0618 21.4305 14.1833 20.3684 14.4029 19.223L14.6996 17.6734C14.7849 17.2289 14.9574 16.8145 15.2023 16.4504C15.589 15.8702 16.1565 15.4169 16.8344 15.1708L20.027 14.0132L23.1949 15.1619C23.8763 15.4094 24.4457 15.8661 24.8331 16.4511V16.4518C25.0814 16.8247 25.2546 17.2487 25.3364 17.7041L25.612 19.2448C25.8159 20.3841 24.9402 21.4305 23.7821 21.4305Z" fill="#B8B6FF"/>
<path d="M21.7744 14.6514L19.9882 16.21L18.2031 14.6514V12.2588H21.7744V14.6514Z" fill="#ECBD83"/>
<path d="M22.8241 8.03818V10.066C22.8241 11.6562 21.5222 12.9954 19.9316 12.9647C18.3902 12.9351 17.1504 11.6769 17.1504 10.1295V8.03818C17.1504 6.47207 18.4205 5.65479 19.9872 5.65479C21.5541 5.65479 22.8241 6.47207 22.8241 8.03818Z" fill="#F7D4AD"/>
<path d="M17.039 18.6929V21.4308H16.2287C15.0618 21.4308 14.1833 20.3687 14.4029 19.2233L14.6996 17.6737C14.7849 17.2292 14.9574 16.8147 15.2023 16.4507C16.2505 16.66 17.039 17.5844 17.039 18.6929Z" fill="#A09EEF"/>
<path d="M23.7829 21.4309H23.002V18.693C23.002 17.5865 23.7884 16.6628 24.8339 16.4521C25.0821 16.8251 25.2554 17.2491 25.3372 17.7045L25.6128 19.2452C25.8167 20.3845 24.941 21.4309 23.7829 21.4309Z" fill="#A09EEF"/>
<path d="M22.824 7.9C22.7178 7.98145 22.6388 8.03994 22.6388 8.03994C22.4378 8.15596 22.2196 8.26221 21.9857 8.35605C20.9219 8.78164 19.8817 8.79727 19.3786 8.44492C19.3786 8.44492 18.8532 8.05312 18.6564 7.80293C18.4597 7.55273 17.8338 7.48936 17.315 8.03994C17.2606 8.09756 17.2055 8.13545 17.1504 8.15762V8.03994C17.1504 6.47275 18.421 5.20264 19.9889 5.20264C20.7729 5.20264 21.4826 5.52031 21.9956 6.03398C22.479 6.51631 22.7887 7.17148 22.824 7.9Z" fill="#6E4848"/>
<path d="M41.4166 34.5939L38.8415 32.5786C38.695 32.464 38.4891 32.464 38.3426 32.5786L35.7675 34.5939C35.5019 34.8019 35.1133 34.6127 35.1133 34.2754V19.8264C35.1133 19.6029 35.2944 19.4219 35.518 19.4219H41.6661C41.8896 19.4219 42.0708 19.603 42.0708 19.8264V34.2755C42.0708 34.6127 41.6822 34.8019 41.4166 34.5939Z" fill="#FF445C"/>
<path d="M48.5474 14.2409C48.5474 15.511 47.1673 16.4975 46.7091 17.6019C46.2341 18.7466 46.4938 20.4158 45.6307 21.2784C44.7677 22.1409 43.0985 21.8801 41.9534 22.3547C40.8489 22.8124 39.8621 24.1923 38.592 24.1923C37.3219 24.1923 36.3351 22.8124 35.2306 22.3547C34.0855 21.8802 32.4164 22.1409 31.5533 21.2784C30.6901 20.4158 30.95 18.7466 30.475 17.6019C30.0167 16.4975 28.6367 15.5109 28.6367 14.2409C28.6367 12.9708 30.0168 11.9844 30.4751 10.88C30.9501 9.73525 30.6903 8.06602 31.5535 7.20342C32.4165 6.34092 34.0856 6.60176 35.2308 6.12715C36.3353 5.66943 37.3221 4.28955 38.5922 4.28955C39.8623 4.28955 40.8491 5.66943 41.9536 6.12715C43.0987 6.60166 44.7678 6.34092 45.6309 7.20342C46.494 8.06602 46.2342 9.73525 46.7092 10.88C47.1673 11.9844 48.5474 12.9708 48.5474 14.2409Z" fill="#FF8B59"/>
<path d="M38.7566 9.31956L40.3554 11.7068C40.3817 11.7459 40.421 11.7745 40.4664 11.7873L43.2318 12.5696C43.3678 12.608 43.4213 12.7723 43.3338 12.8833L41.5565 15.1409C41.5273 15.178 41.5123 15.2242 41.5141 15.2713L41.6244 18.1419C41.6299 18.2831 41.49 18.3847 41.3574 18.3359L38.6601 17.344C38.6159 17.3277 38.5673 17.3277 38.523 17.344L35.8257 18.3359C35.693 18.3847 35.5533 18.2831 35.5587 18.1419L35.6689 15.2713C35.6708 15.2242 35.6557 15.178 35.6265 15.1409L33.8493 12.8833C33.7619 12.7723 33.8152 12.608 33.9512 12.5696L36.7167 11.7873C36.7621 11.7745 36.8014 11.7459 36.8276 11.7068L38.4264 9.31956C38.5052 9.20208 38.678 9.20208 38.7566 9.31956Z" fill="#FEE07D"/>
</g>
<defs>
<clipPath id="clip0_375_3771">
<rect width="50" height="50" fill="white" transform="translate(0 0.555176)"/>
</clipPath>
</defs>
</svg>
