<svg width="81" height="81" viewBox="0 0 81 81" fill="none" xmlns="http://www.w3.org/2000/svg">
<g id="bento.svg" clip-path="url(#clip0_375_3225)">
<g id="Group">
<path id="Vector" d="M74.5939 80.78H35.7408C32.8248 80.78 30.4609 78.4161 30.4609 75.5002V6.05987C30.4609 3.14394 32.8248 0.780029 35.7408 0.780029H74.5939C77.5098 0.780029 79.8737 3.14394 79.8737 6.05987V75.5002C79.8737 78.4161 77.5098 80.78 74.5939 80.78Z" fill="#FFD2E7"/>
<path id="Vector_2" d="M79.8751 6.05902V75.5009C79.8751 78.4159 77.5113 80.7796 74.5948 80.7796H71.3809C74.2974 80.7796 76.6612 78.4159 76.6612 75.5009V6.05902C76.6612 3.14402 74.2974 0.780273 71.3809 0.780273H74.5948C77.5113 0.780273 79.8751 3.14402 79.8751 6.05902Z" fill="#FEC0DD"/>
<path id="Vector_3" d="M74.8455 8.64477V72.9155C74.8455 74.2076 73.7995 75.2537 72.5091 75.2537H37.8266C36.5363 75.2537 35.4902 74.2076 35.4902 72.9155V8.64477C35.4902 7.35273 36.5363 6.30664 37.8266 6.30664H72.509C73.7993 6.30664 74.8455 7.35273 74.8455 8.64477Z" fill="#9C9C9C"/>
<path id="Vector_4" d="M74.8472 8.64477V72.9155C74.8472 74.2076 73.8011 75.2537 72.5108 75.2537H69.2969C70.5872 75.2537 71.6333 74.2076 71.6333 72.9155V8.64477C71.6333 7.35273 70.5872 6.30664 69.2969 6.30664H72.5108C73.8011 6.30664 74.8472 7.35273 74.8472 8.64477Z" fill="#838383"/>
<path id="Vector_5" d="M74.8455 43.644V72.9156C74.8455 74.2076 73.7995 75.2537 72.5091 75.2537H37.8266C36.5363 75.2537 35.4902 74.2076 35.4902 72.9156V43.644H74.8455Z" fill="#F5F8F9"/>
<path id="Vector_6" d="M74.8457 43.6436V72.9154C74.8457 74.2075 73.7996 75.2536 72.5093 75.2536H69.3066C70.597 75.2536 71.643 74.2075 71.643 72.9154V43.6436H74.8457Z" fill="#E8EDF2"/>
<g id="Group_2">
<g id="Group_3">
<path id="Vector_7" d="M39.625 36.1693V24.7971C39.625 23.2086 40.9128 21.9209 42.5013 21.9209H48.1687C49.7573 21.9209 51.045 23.2087 51.045 24.7971V36.1693C51.045 37.7579 49.7572 39.0456 48.1687 39.0456H42.5013C40.9128 39.0456 39.625 37.7579 39.625 36.1693Z" fill="#E19974"/>
<path id="Vector_8" d="M51.0448 24.7969V36.1688C51.0448 37.7585 49.7572 39.0461 48.1691 39.0461H45.0742C46.6623 39.0461 47.95 37.7585 47.95 36.1688V24.7969C47.95 23.2088 46.6623 21.9211 45.0742 21.9211H48.1691C49.7572 21.9211 51.0448 23.2088 51.0448 24.7969Z" fill="#DC8758"/>
<g id="Group_4">
<g id="Group_5">
<path id="Vector_9" d="M44.5264 34.6322C44.1672 34.6322 43.8117 34.4725 43.5742 34.1669C43.1656 33.6414 43.2603 32.8843 43.7856 32.4757L45.4047 31.2164C45.9301 30.8077 46.6872 30.9022 47.0959 31.4278C47.5045 31.9533 47.4098 32.7105 46.8845 33.1191L45.2654 34.3783C45.0454 34.5494 44.7848 34.6322 44.5264 34.6322Z" fill="#DC8758"/>
</g>
</g>
</g>
<g id="Group_6">
<path id="Vector_10" d="M49.459 36.1693V24.7971C49.459 23.2086 50.7468 21.9209 52.3352 21.9209H58.0027C59.5913 21.9209 60.879 23.2087 60.879 24.7971V36.1693C60.879 37.7579 59.5912 39.0456 58.0027 39.0456H52.3352C50.7466 39.0456 49.459 37.7579 49.459 36.1693Z" fill="#E19974"/>
<path id="Vector_11" d="M60.8788 24.7969V36.1688C60.8788 37.7585 59.5912 39.0461 58.003 39.0461H54.9082C56.4963 39.0461 57.784 37.7585 57.784 36.1688V24.7969C57.784 23.2088 56.4963 21.9211 54.9082 21.9211H58.003C59.5912 21.9211 60.8788 23.2088 60.8788 24.7969Z" fill="#DC8758"/>
<g id="Group_7">
<g id="Group_8">
<path id="Vector_12" d="M54.3604 34.6322C54.0011 34.6322 53.6457 34.4725 53.4082 34.1669C52.9996 33.6414 53.0943 32.8844 53.6196 32.4757L55.2386 31.2164C55.7641 30.8077 56.5213 30.9022 56.9299 31.4278C57.3385 31.9533 57.2438 32.7103 56.7185 33.1191L55.0994 34.3783C54.8794 34.5494 54.619 34.6322 54.3604 34.6322Z" fill="#DC8758"/>
</g>
</g>
</g>
<g id="Group_9">
<path id="Vector_13" d="M59.293 36.1693V24.7971C59.293 23.2086 60.5808 21.9209 62.1692 21.9209H67.8367C69.4253 21.9209 70.713 23.2087 70.713 24.7971V36.1693C70.713 37.7579 69.4252 39.0456 67.8367 39.0456H62.1692C60.5808 39.0456 59.293 37.7579 59.293 36.1693Z" fill="#E19974"/>
<path id="Vector_14" d="M70.7128 24.7969V36.1688C70.7128 37.7585 69.4252 39.0461 67.837 39.0461H64.7422C66.3303 39.0461 67.618 37.7585 67.618 36.1688V24.7969C67.618 23.2088 66.3303 21.9211 64.7422 21.9211H67.837C69.4252 21.9211 70.7128 23.2088 70.7128 24.7969Z" fill="#DC8758"/>
<g id="Group_10">
<g id="Group_11">
<path id="Vector_15" d="M64.1943 34.6322C63.8351 34.6322 63.4797 34.4725 63.2422 34.1669C62.8336 33.6414 62.9283 32.8844 63.4536 32.4757L65.0726 31.2164C65.5981 30.8077 66.3553 30.9022 66.7639 31.4278C67.1725 31.9533 67.0778 32.7103 66.5525 33.1191L64.9334 34.3783C64.7136 34.5494 64.4529 34.6322 64.1943 34.6322Z" fill="#DC8758"/>
</g>
</g>
</g>
</g>
<g id="Group_12">
<g id="Group_13">
<path id="Vector_16" d="M39.5176 17.4421C38.8353 18.6297 38.8353 20.0796 39.5176 21.2674C42.2812 26.078 48.0543 27.7844 52.6434 26.9236C53.0982 26.8383 53.5506 26.7074 53.9943 26.5347C60.4628 24.0165 60.4628 14.693 53.9943 12.1747C53.5507 12.0021 53.0984 11.8711 52.6434 11.7858C48.0543 10.9249 42.2811 12.6315 39.5176 17.4421Z" fill="#F5F8F9"/>
<path id="Vector_17" d="M53.9952 26.5347C53.5517 26.7083 53.0984 26.8384 52.6438 26.9236C50.3169 27.3606 47.6864 27.1373 45.2969 26.1828C46.7061 26.3692 48.1155 26.3339 49.4298 26.0879C49.8845 26.0028 50.3378 25.8711 50.7813 25.699C57.0273 23.2678 57.2411 14.4892 51.4241 11.6223C51.837 11.6561 52.2452 11.7123 52.6438 11.7862C53.0984 11.8714 53.5517 12.0015 53.9952 12.1751C60.4631 14.6933 60.4631 24.0167 53.9952 26.5347Z" fill="#E8EDF2"/>
<path id="Vector_18" d="M50.3863 22.8408C52.3116 22.8408 53.8723 21.2801 53.8723 19.3548C53.8723 17.4296 52.3116 15.8689 50.3863 15.8689C48.4611 15.8689 46.9004 17.4296 46.9004 19.3548C46.9004 21.2801 48.4611 22.8408 50.3863 22.8408Z" fill="#FEE97D"/>
<path id="Vector_19" d="M53.8704 19.355C53.8704 21.2801 52.3101 22.8405 50.3849 22.8405C49.2857 22.8405 48.304 22.3311 47.666 21.5356C47.6949 21.5372 47.7255 21.5372 47.7545 21.5372C49.6796 21.5372 51.2399 19.9769 51.2399 18.0501C51.2399 17.2258 50.9538 16.4689 50.4751 15.8728C52.3584 15.9178 53.8704 17.4603 53.8704 19.355Z" fill="#FEDF30"/>
</g>
<g id="Group_14">
<path id="Vector_20" d="M52 17.4421C51.3177 18.6297 51.3177 20.0796 52 21.2674C54.7636 26.078 60.5368 27.7844 65.1258 26.9236C65.5807 26.8383 66.033 26.7074 66.4768 26.5347C72.9452 24.0165 72.9452 14.693 66.4768 12.1747C66.0332 12.0021 65.5808 11.8711 65.1258 11.7858C60.5368 10.9249 54.7636 12.6315 52 17.4421Z" fill="#F5F8F9"/>
<path id="Vector_21" d="M66.4776 26.5347C66.0341 26.7083 65.5809 26.8384 65.1262 26.9236C62.7993 27.3606 60.1688 27.1373 57.7793 26.1828C59.1885 26.3692 60.5979 26.3339 61.9123 26.0879C62.367 26.0028 62.8202 25.8711 63.2637 25.699C69.5098 23.2678 69.7235 14.4892 63.9065 11.6223C64.3195 11.6561 64.7276 11.7123 65.1262 11.7862C65.5809 11.8714 66.0341 12.0015 66.4776 12.1751C72.9454 14.6933 72.9454 24.0167 66.4776 26.5347Z" fill="#E8EDF2"/>
<path id="Vector_22" d="M62.8687 22.8408C64.794 22.8408 66.3547 21.2801 66.3547 19.3548C66.3547 17.4296 64.794 15.8689 62.8687 15.8689C60.9435 15.8689 59.3828 17.4296 59.3828 19.3548C59.3828 21.2801 60.9435 22.8408 62.8687 22.8408Z" fill="#FEE97D"/>
<path id="Vector_23" d="M66.3528 19.355C66.3528 21.2801 64.7925 22.8405 62.8673 22.8405C61.7681 22.8405 60.7864 22.3311 60.1484 21.5356C60.1773 21.5372 60.208 21.5372 60.2369 21.5372C62.162 21.5372 63.7223 19.9769 63.7223 18.0501C63.7223 17.2258 63.4362 16.4689 62.9575 15.8728C64.8406 15.9178 66.3528 17.4603 66.3528 19.355Z" fill="#FEDF30"/>
</g>
</g>
<g id="Group_15">
<g id="Group_16">
<path id="Vector_24" d="M63.3983 57.7615C63.1889 57.6976 62.8591 57.5969 62.6281 57.5265C62.4969 57.4865 62.4425 57.3307 62.5647 57.1529L62.9763 56.554C63.041 56.4597 63.0152 56.3308 62.9191 56.2688C62.8046 56.1949 62.6739 56.1104 62.6611 56.1018C61.3827 55.2347 59.6774 55.0752 58.2419 55.6126C58.4247 53.9601 57.7061 52.2082 56.3639 51.2038C56.3516 51.1946 56.2291 51.0987 56.1217 51.0146C56.0317 50.9441 55.9014 50.9616 55.8335 51.0537L55.4016 51.6382C55.2735 51.8116 55.1085 51.811 55.0278 51.7001C54.8858 51.5047 54.683 51.2257 54.5544 51.0486C54.4872 50.9561 54.3569 50.9376 54.2664 51.0074C54.1585 51.0907 54.0353 51.1857 54.0228 51.1947C52.6728 52.1888 51.9408 53.9351 52.111 55.589C50.6797 55.0407 48.9731 55.1871 47.6881 56.0441C47.6753 56.0527 47.5441 56.1362 47.4289 56.2093C47.3324 56.2705 47.3055 56.3993 47.3696 56.4941L47.7766 57.0962C47.8974 57.2749 47.8417 57.4302 47.7102 57.4693C47.4788 57.538 47.148 57.6362 46.9382 57.6983C46.8285 57.7308 46.7675 57.8474 46.8031 57.956C46.8456 58.0855 46.8941 58.2333 46.8985 58.2482C47.38 59.8354 48.7571 61.0982 50.3511 61.504C48.8535 62.4982 47.9803 64.393 48.2383 66.1857C48.2405 66.201 48.2592 66.3554 48.2757 66.4907C48.2894 66.6041 48.3941 66.684 48.5071 66.6669L49.2256 66.559C49.4389 66.5269 49.5552 66.6441 49.5338 66.7796C49.4961 67.018 49.4422 67.3588 49.408 67.5749C49.3902 67.6879 49.4691 67.793 49.5824 67.8077C49.7175 67.8252 49.8719 67.8451 49.8871 67.8474C52.1088 68.1847 54.5013 66.7818 55.1414 64.5915C55.7647 66.7866 58.1464 68.208 60.3706 67.8877C60.386 67.8855 60.5403 67.8668 60.6756 67.8504C60.7891 67.8366 60.8689 67.7319 60.8519 67.619C60.8194 67.4026 60.7681 67.0615 60.7322 66.8227C60.7119 66.6871 60.8289 66.5708 61.0421 66.6046L61.7599 66.718C61.8728 66.7358 61.978 66.6569 61.9927 66.5436C62.0102 66.4085 62.03 66.2541 62.0324 66.239C62.3042 64.4483 61.4456 62.5469 59.9556 61.5412C61.5527 61.1476 62.9396 59.8954 63.4333 58.3119C63.4378 58.2972 63.4874 58.1497 63.531 58.0205C63.5677 57.9119 63.5077 57.7949 63.3983 57.7615Z" fill="#FEA3CE"/>
</g>
<g id="Group_17">
<path id="Vector_25" d="M56.3631 51.2035C56.3509 51.1943 56.2281 51.0985 56.1213 51.014C56.0313 50.9435 55.9003 50.9615 55.8323 51.0532L55.4014 51.6385C55.273 51.8109 55.108 51.8102 55.0267 51.6996C54.8858 51.5048 54.6825 51.2249 54.5534 51.0488C54.4869 50.9563 54.3558 50.9367 54.2653 51.0077C54.2441 51.0245 53.9269 51.276 53.9219 51.2717C54.9586 52.199 55.5486 53.5992 55.5316 54.9843C55.5289 55.1973 55.7303 55.3548 55.9358 55.2993C56.6917 55.0951 57.4995 55.0724 58.2672 55.2326C58.3109 53.6971 57.6025 52.1306 56.3631 51.2035ZM62.0322 66.2381C62.3039 64.4482 61.4453 62.5463 59.9552 61.5406C61.5519 61.1471 62.9392 59.8954 63.4331 58.3123C63.4373 58.2963 63.488 58.1487 63.5311 58.0185C63.5669 57.9106 63.5075 57.7952 63.3989 57.762C63.1886 57.6974 62.8592 57.5974 62.6277 57.5263C62.4963 57.4859 62.4425 57.3304 62.5636 57.1524L62.9761 56.554C63.0403 56.4601 63.0152 56.3307 62.9181 56.2687C62.8038 56.1952 62.6734 56.1106 62.6611 56.1013C61.5758 55.366 60.1856 55.1404 58.9127 55.4162C59.2686 55.5432 59.6081 55.7145 59.9222 55.9268C59.9359 55.9349 60.0664 56.0196 60.1805 56.0945C60.2761 56.1562 60.3028 56.2846 60.2384 56.3798L59.8259 56.9782C59.7034 57.1559 59.7586 57.3117 59.89 57.3521C60.1203 57.4217 60.4503 57.5231 60.6595 57.586C60.77 57.6199 60.8292 57.7376 60.7931 57.8448C60.7502 57.9745 60.6998 58.1221 60.6958 58.1367C60.2622 59.5268 59.1394 60.6624 57.7909 61.1849C57.5645 61.2726 57.5017 61.5667 57.6836 61.7274C58.8822 62.7871 59.5367 64.4698 59.2947 66.0637C59.292 66.0785 59.2723 66.2332 59.2547 66.3688C59.24 66.4821 59.1345 66.5609 59.0217 66.5431L58.3041 66.4296C58.0909 66.3951 57.9742 66.5113 57.9941 66.6468C58.0297 66.8865 58.0817 67.2276 58.1145 67.4446C58.1244 67.5131 58.1 67.5781 58.0531 67.6223C58.7903 67.8974 59.5894 67.9993 60.3703 67.887C60.3858 67.8856 60.5406 67.8665 60.6753 67.8507C60.7889 67.8367 60.8691 67.7318 60.8519 67.619C60.8191 67.4021 60.7684 67.0612 60.7325 66.8227C60.7113 66.6871 60.8281 66.5709 61.0414 66.604L61.7592 66.7174C61.8725 66.7354 61.9772 66.6571 61.992 66.5434C62.0097 66.4077 62.0292 66.2543 62.0322 66.2381Z" fill="#FE7AB6"/>
</g>
<path id="Vector_26" d="M56.929 59.6947L56.367 59.2468L56.3707 58.2541C56.3732 57.5887 55.8357 57.0469 55.1701 57.0444C55.1685 57.0444 55.167 57.0444 55.1654 57.0444C54.502 57.0444 53.9629 57.581 53.9603 58.2451L53.9565 59.2374L53.3911 59.681C52.8675 60.0918 52.7759 60.8493 53.1865 61.3732C53.4243 61.6761 53.7781 61.8346 54.1356 61.8346C54.3957 61.8346 54.6579 61.7508 54.8785 61.5777L55.1532 61.3622L55.4264 61.5799C55.6484 61.7568 55.9134 61.8426 56.1768 61.8426C56.531 61.8426 56.8821 61.6871 57.1201 61.3885C57.5351 60.8679 57.4493 60.1096 56.929 59.6947Z" fill="#FE7AB6"/>
</g>
<g id="Group_18">
<path id="Vector_27" d="M42.6946 51.9447C42.4361 51.9447 42.1756 51.8619 41.9556 51.6908C41.4303 51.2822 41.3354 50.525 41.7442 49.9996L42.7618 48.6913C43.1703 48.1657 43.9276 48.0711 44.4531 48.4799C44.9784 48.8885 45.0732 49.6457 44.6645 50.1711L43.6468 51.4794C43.4092 51.785 43.0539 51.9447 42.6946 51.9447Z" fill="#E8EDF2"/>
</g>
<g id="Group_19">
<path id="Vector_28" d="M66.6087 69.8835C66.3501 69.8835 66.0896 69.8007 65.8696 69.6296C65.3443 69.221 65.2495 68.4638 65.6582 67.9383L66.6759 66.63C67.0845 66.1043 67.8417 66.0099 68.3671 66.4186C68.8925 66.8272 68.9873 67.5844 68.5786 68.1099L67.5609 69.4182C67.3232 69.7238 66.9679 69.8835 66.6087 69.8835Z" fill="#E8EDF2"/>
</g>
<g id="Group_20">
<path id="Vector_29" d="M40.7494 58.3797C40.4908 58.3797 40.2303 58.2968 40.0103 58.1257C39.4849 57.7172 39.3902 56.96 39.7989 56.4345L40.8166 55.1262C41.225 54.6008 41.9824 54.5062 42.5078 54.9148C43.0331 55.3234 43.128 56.0806 42.7192 56.6061L41.7016 57.9143C41.4641 58.2198 41.1086 58.3797 40.7494 58.3797Z" fill="#E8EDF2"/>
</g>
<g id="Group_21">
<path id="Vector_30" d="M66.6087 53.1431C66.3501 53.1431 66.0896 53.0603 65.8696 52.8892C65.3443 52.4806 65.2495 51.7234 65.6582 51.1979L66.6759 49.8896C67.0845 49.3642 67.8417 49.2696 68.3671 49.6782C68.8925 50.0868 68.9873 50.844 68.5786 51.3695L67.5609 52.6778C67.3232 52.9834 66.9679 53.1431 66.6087 53.1431Z" fill="#E8EDF2"/>
</g>
<g id="Group_22">
<path id="Vector_31" d="M24.1776 17.2713H2.69602C2.10555 17.2713 1.62695 16.7927 1.62695 16.2022V8.89816C1.62695 8.3077 2.10555 7.8291 2.69602 7.8291H24.1776C24.768 7.8291 25.2466 8.3077 25.2466 8.89816V16.2022C25.2468 16.7927 24.768 17.2713 24.1776 17.2713Z" fill="#E19974"/>
<path id="Vector_32" d="M25.2473 8.89843V16.202C25.2473 16.7934 24.7684 17.2722 24.1788 17.2722H20.9648C21.5545 17.2722 22.0334 16.7933 22.0334 16.202V8.89843C22.0334 8.30702 21.5545 7.82983 20.9648 7.82983H24.1788C24.7684 7.82983 25.2473 8.30718 25.2473 8.89843Z" fill="#DC8758"/>
<g id="Group_23">
<path id="Vector_33" d="M10.8835 79.5327C9.4732 79.5327 8.33008 78.3894 8.33008 76.9792V4.58078C8.33008 3.17047 9.47336 2.02734 10.8835 2.02734C12.2938 2.02734 13.437 3.17063 13.437 4.58078V76.9792C13.437 78.3894 12.2938 79.5327 10.8835 79.5327Z" fill="#E19974"/>
<path id="Vector_34" d="M15.9909 79.5327C14.5806 79.5327 13.4375 78.3894 13.4375 76.9792V4.58078C13.4375 3.17047 14.5808 2.02734 15.9909 2.02734C17.4012 2.02734 18.5444 3.17063 18.5444 4.58078V76.9792C18.5444 78.3894 17.4011 79.5327 15.9909 79.5327Z" fill="#E19974"/>
</g>
<path id="Vector_35" d="M13.4373 4.58094V76.9791C13.4373 78.3887 12.2932 79.5327 10.8837 79.5327C9.47414 79.5327 8.33008 78.3887 8.33008 76.9791V4.58094C8.33008 3.17125 9.47414 2.02734 10.8837 2.02734C11.5893 2.02734 12.227 2.31297 12.6885 2.77609C13.1516 3.23766 13.4373 3.87688 13.4373 4.58094Z" fill="#ECBBA3"/>
<path id="Vector_36" d="M18.5447 4.58094V76.9791C18.5447 78.3887 17.4006 79.5327 15.9911 79.5327C14.5798 79.5327 13.4375 78.3887 13.4375 76.9791V4.58094C13.4375 3.17125 14.5798 2.02734 15.9911 2.02734C16.6967 2.02734 17.3344 2.31297 17.7959 2.77609C18.2592 3.23766 18.5447 3.87688 18.5447 4.58094Z" fill="#ECBBA3"/>
<path id="Vector_37" d="M13.4384 4.58054V76.9791C13.4384 78.3884 12.2943 79.5326 10.8849 79.5326C10.419 79.5326 9.98336 79.4073 9.60742 79.1904C10.3707 78.7485 10.8849 77.9241 10.8849 76.9793V4.58054C10.8849 3.87663 10.5988 3.2371 10.1362 2.77601C9.97867 2.61851 9.80195 2.48194 9.60742 2.37101C9.98352 2.15241 10.419 2.0271 10.8849 2.0271C11.5904 2.0271 12.2266 2.31304 12.6895 2.77585C13.1523 3.23726 13.4384 3.87679 13.4384 4.58054Z" fill="#E8AD8C"/>
<path id="Vector_38" d="M18.544 4.58063V76.9792C18.544 78.3884 17.3999 79.5327 15.9905 79.5327C15.5246 79.5327 15.089 79.4073 14.713 79.1905C15.4763 78.7486 15.9905 77.9242 15.9905 76.9794V4.58063C15.9905 3.87672 15.7045 3.23719 15.2416 2.77609C15.0841 2.61859 14.9074 2.48203 14.7129 2.36953C15.089 2.15266 15.5245 2.02734 15.9904 2.02734C16.6959 2.02734 17.3338 2.31328 17.7949 2.77609C18.2579 3.23734 18.544 3.87687 18.544 4.58063Z" fill="#E8AD8C"/>
<path id="Vector_39" d="M13.437 33.5039H8.33008V4.58094C8.33008 3.17125 9.47414 2.02734 10.8837 2.02734C11.5893 2.02734 12.227 2.31297 12.6885 2.77609C13.1518 3.23766 13.4373 3.87688 13.4373 4.58094L13.437 33.5039Z" fill="#FEA3CE"/>
<path id="Vector_40" d="M18.5522 33.5039H13.4453V4.58094C13.4453 3.17125 14.5894 2.02734 15.9989 2.02734C16.7045 2.02734 17.3422 2.31297 17.8037 2.77609C18.267 3.23766 18.5525 3.87688 18.5525 4.58094L18.5522 33.5039Z" fill="#FEA3CE"/>
<g id="Group_24">
<path id="Vector_41" d="M18.5518 4.58054V33.5037H15.9984V4.58054C15.9984 3.87663 15.714 3.2371 15.2495 2.77601C15.0935 2.61851 14.9152 2.48194 14.7207 2.37101C15.0951 2.15241 15.5323 2.0271 15.9982 2.0271C16.7037 2.0271 17.3416 2.31304 17.8027 2.77585C18.2674 3.23726 18.5518 3.87679 18.5518 4.58054Z" fill="#FE7AB6"/>
<path id="Vector_42" d="M13.4366 4.58054V33.5037H10.8831V4.58054C10.8831 3.87663 10.5987 3.2371 10.1342 2.77601C9.97828 2.61851 9.8 2.48194 9.60547 2.37101C9.97984 2.15241 10.417 2.0271 10.883 2.0271C11.5884 2.0271 12.2264 2.31304 12.6875 2.77585C13.152 3.23726 13.4366 3.87679 13.4366 4.58054Z" fill="#FE7AB6"/>
</g>
</g>
</g>
</g>
<defs>
<clipPath id="clip0_375_3225">
<rect width="80" height="80" fill="white" transform="translate(0.75 0.780029)"/>
</clipPath>
</defs>
</svg>
