<svg width="81" height="81" viewBox="0 0 81 81" fill="none" xmlns="http://www.w3.org/2000/svg">
<g id="buffet.svg" clip-path="url(#clip0_375_3325)">
<path id="Vector" d="M70.563 20.7181C69.924 20.6607 69.3185 20.781 68.7893 21.0349C67.9568 21.4341 66.9668 21.2381 66.2875 20.6125C65.5435 19.9277 64.5364 19.5237 63.4347 19.5694C61.4273 19.6537 59.7726 21.2723 59.6475 23.2773C59.5047 25.582 61.3308 27.4955 63.6044 27.4955H70.2505C72.2537 27.4955 73.8522 25.7608 73.6245 23.7119C73.4494 22.1274 72.1499 20.8603 70.563 20.7181Z" fill="#FF9C43"/>
<path id="Vector_2" d="M19.0588 11.9242C18.3923 11.9242 17.8516 11.3834 17.8516 10.7169V8.74976C17.8516 8.08264 18.3923 7.54248 19.0588 7.54248C19.726 7.54248 20.2661 8.08264 20.2661 8.74976V10.7169C20.2661 11.3834 19.726 11.9242 19.0588 11.9242Z" fill="#D6D6D6"/>
<path id="Vector_3" d="M53.161 7.43456C52.6752 7.43456 52.2174 7.13976 52.0331 6.65941L51.3293 4.82225C51.0907 4.19969 51.402 3.50145 52.0245 3.26341C52.6471 3.02477 53.3453 3.33605 53.584 3.95799L54.2877 5.79515C54.5263 6.41771 54.2151 7.11595 53.5925 7.3546C53.4503 7.40892 53.3044 7.43456 53.161 7.43456Z" fill="#D6D6D6"/>
<path id="Vector_4" d="M12.0922 77.6743H11.0955C9.98218 77.6743 9.08008 76.7722 9.08008 75.6595V54.2515H14.1069V75.6595C14.1069 76.7722 13.2048 77.6743 12.0922 77.6743Z" fill="#CC966A"/>
<path id="Vector_5" d="M69.4861 77.6968H68.4894C67.3767 77.6968 66.4746 76.7947 66.4746 75.682V54.2739H71.5009V75.682C71.5009 76.7947 70.5988 77.6968 69.4861 77.6968Z" fill="#CC966A"/>
<path id="Vector_6" d="M74.4319 67.8567H6.07312C4.28723 67.8567 2.83887 66.4089 2.83887 64.623V41.1282C2.83887 39.3423 4.28723 37.8945 6.07312 37.8945H74.4319C76.2178 37.8945 77.6655 39.3423 77.6655 41.1282V64.623C77.6661 66.4089 76.2178 67.8567 74.4319 67.8567Z" fill="#345863"/>
<path id="Vector_7" d="M74.4314 37.894H69.3508V64.6232C69.3508 66.4091 67.9031 67.8568 66.1172 67.8568H74.4314C76.2173 67.8568 77.665 66.4091 77.665 64.6232V41.1283C77.6656 39.3424 76.2173 37.894 74.4314 37.894Z" fill="#1E4751"/>
<g id="Group">
<path id="Vector_8" d="M7.35969 39.6603C7.04597 39.6603 6.73347 39.5388 6.49665 39.2977C6.03035 38.821 6.03889 38.0563 6.51496 37.59C7.56233 36.5652 8.21357 34.9581 8.21357 33.3956V31.0549C8.21357 30.3884 8.75373 29.8477 9.42024 29.8477C10.0874 29.8477 10.6275 30.3884 10.6275 31.0549V33.3956C10.6275 35.6173 9.72175 37.8304 8.20381 39.3154C7.96882 39.5455 7.66426 39.6603 7.35969 39.6603Z" fill="#D6D6D6"/>
<path id="Vector_9" d="M30.2698 39.6602C29.9652 39.6602 29.6606 39.5454 29.4257 39.3159C27.9077 37.8303 27.002 35.6172 27.002 33.3961V31.0554C27.002 30.3883 27.5421 29.8481 28.2086 29.8481C28.8757 29.8481 29.4159 30.3883 29.4159 31.0554V33.3961C29.4159 34.958 30.0665 36.5651 31.1139 37.5898C31.5906 38.0568 31.5991 38.8209 31.1322 39.2976C30.896 39.5393 30.5829 39.6602 30.2698 39.6602Z" fill="#D6D6D6"/>
<path id="Vector_10" d="M47.7503 39.6603C47.4366 39.6603 47.1241 39.5388 46.8873 39.2977C46.421 38.821 46.4295 38.0563 46.9056 37.59C47.953 36.5652 48.6042 34.9581 48.6042 33.3956V31.0549C48.6042 30.3884 49.1444 29.8477 49.8109 29.8477C50.478 29.8477 51.0181 30.3884 51.0181 31.0549V33.3956C51.0181 35.6173 50.1124 37.8304 48.5944 39.3154C48.3594 39.5455 48.0549 39.6603 47.7503 39.6603Z" fill="#D6D6D6"/>
<path id="Vector_11" d="M70.66 39.6602C70.3555 39.6602 70.0503 39.5454 69.8153 39.3159C68.298 37.8303 67.3916 35.6172 67.3916 33.3961V31.0554C67.3916 30.3883 67.9324 29.8481 68.5989 29.8481C69.2654 29.8481 69.8062 30.3883 69.8062 31.0554V33.3961C69.8062 34.958 70.4568 36.5651 71.5042 37.5898C71.9808 38.0568 71.9888 38.8209 71.5225 39.2976C71.2863 39.5393 70.9731 39.6602 70.66 39.6602Z" fill="#D6D6D6"/>
</g>
<path id="Vector_12" d="M6.99597 51.8525C4.69983 51.8525 2.83887 49.9916 2.83887 47.6954V42.0283H11.1531V47.6954C11.1531 49.9916 9.29211 51.8525 6.99597 51.8525Z" fill="#E02B3D"/>
<path id="Vector_13" d="M15.3094 51.8525C13.0133 51.8525 11.1523 49.9916 11.1523 47.6954V42.0283H19.4666V47.6954C19.4666 49.9916 17.605 51.8525 15.3094 51.8525Z" fill="#F43B45"/>
<path id="Vector_14" d="M23.6239 51.8525C21.3278 51.8525 19.4668 49.9916 19.4668 47.6954V42.0283H27.7804V47.6954C27.781 49.9916 25.9194 51.8525 23.6239 51.8525Z" fill="#E02B3D"/>
<path id="Vector_15" d="M31.9384 51.8525C29.6422 51.8525 27.7812 49.9916 27.7812 47.6954V42.0283H36.0948V47.6954C36.0948 49.9916 34.2339 51.8525 31.9384 51.8525Z" fill="#F43B45"/>
<path id="Vector_16" d="M40.2518 51.8525C37.9563 51.8525 36.0947 49.9916 36.0947 47.6954V42.0283H44.4089V47.6954C44.4089 49.9916 42.548 51.8525 40.2518 51.8525Z" fill="#E02B3D"/>
<path id="Vector_17" d="M48.5663 51.8525C46.2701 51.8525 44.4092 49.9916 44.4092 47.6954V42.0283H52.7234V47.6954C52.7234 49.9916 50.8624 51.8525 48.5663 51.8525Z" fill="#F43B45"/>
<path id="Vector_18" d="M56.8798 51.8525C54.5836 51.8525 52.7227 49.9916 52.7227 47.6954V42.0283H61.0369V47.6954C61.0369 49.9916 59.1759 51.8525 56.8798 51.8525Z" fill="#E02B3D"/>
<path id="Vector_19" d="M65.1942 51.8525C62.8981 51.8525 61.0371 49.9916 61.0371 47.6954V42.0283H69.3513V47.6954C69.3513 49.9916 67.4897 51.8525 65.1942 51.8525Z" fill="#F43B45"/>
<path id="Vector_20" d="M73.5087 51.8525C71.2125 51.8525 69.3516 49.9916 69.3516 47.6954V42.0283H77.6658V47.6954C77.6658 49.9916 75.8042 51.8525 73.5087 51.8525Z" fill="#E02B3D"/>
<path id="Vector_21" d="M19.0581 10.7163C10.6353 10.7163 3.80664 17.8403 3.80664 26.6276H34.3096C34.3096 17.8403 27.481 10.7163 19.0581 10.7163Z" fill="#EDEDED"/>
<path id="Vector_22" d="M19.059 10.7163C17.6222 10.7163 16.2324 10.9244 14.9141 11.3114C21.3228 13.1956 26.0206 19.3394 26.0206 26.6276H34.3104C34.3104 17.8403 27.4818 10.7163 19.059 10.7163Z" fill="#D6D6D6"/>
<path id="Vector_23" d="M30.819 32.7786H7.29846C6.43359 32.7786 5.67798 32.1938 5.4613 31.3564L4.61719 28.0972H33.5002L32.6567 31.3564C32.4395 32.1938 31.6844 32.7786 30.819 32.7786Z" fill="#EDEDED"/>
<path id="Vector_24" d="M34.3872 28.4542H3.73047C2.72156 28.4542 1.9043 27.6364 1.9043 26.6274C1.9043 25.6185 2.72156 24.8013 3.73047 24.8013H34.3872C35.3961 24.8013 36.214 25.6185 36.214 26.6274C36.214 27.6364 35.3961 28.4542 34.3872 28.4542Z" fill="#D6D6D6"/>
<path id="Vector_25" d="M70.9655 32.7786H47.4449C46.5801 32.7786 45.8245 32.1938 45.6072 31.3564L44.7637 28.0972H73.6467L72.8026 31.3564C72.5859 32.1938 71.8303 32.7786 70.9655 32.7786Z" fill="#EDEDED"/>
<path id="Vector_26" d="M74.5333 28.4542H43.8766C42.8677 28.4542 42.0498 27.6364 42.0498 26.6274C42.0498 25.6185 42.8677 24.8013 43.8766 24.8013H74.5333C75.5422 24.8013 76.3601 25.6185 76.3601 26.6274C76.3601 27.6364 75.5422 28.4542 74.5333 28.4542Z" fill="#D6D6D6"/>
<path id="Vector_27" d="M71.7732 14.1768C72.0814 14.0584 72.2139 13.6928 72.0515 13.4053C68.2685 6.68903 60.2809 3.49811 53.1605 6.227C45.8485 9.02973 42.0283 17.0882 44.0541 24.8006L71.7732 14.1768Z" fill="#EDEDED"/>
<path id="Vector_28" d="M72.0513 13.4053C68.2683 6.68903 60.2806 3.49811 53.1603 6.227C51.6173 6.81843 50.2312 7.64667 49.0215 8.65375C55.2007 7.91035 61.4128 11.1654 64.5415 16.9484L71.7729 14.1768C72.0812 14.0584 72.2136 13.6928 72.0513 13.4053Z" fill="#D6D6D6"/>
<path id="Vector_29" d="M78.1827 42.0284H2.31726C1.17529 42.0284 0.25 41.1031 0.25 39.9618C0.25 38.8198 1.17529 37.8945 2.31726 37.8945H78.1827C79.3247 37.8945 80.25 38.8198 80.25 39.9618C80.25 41.1031 79.3247 42.0284 78.1827 42.0284Z" fill="#F43B45"/>
</g>
<defs>
<clipPath id="clip0_375_3325">
<rect width="80" height="80" fill="white" transform="translate(0.25 0.370117)"/>
</clipPath>
</defs>
</svg>
