<svg width="50" height="51" viewBox="0 0 50 51" fill="none" xmlns="http://www.w3.org/2000/svg">
<path d="M7.11953 42.9953C7.39481 42.1772 6.789 41.2351 5.76641 40.891C4.74382 40.5469 3.69169 40.9311 3.41641 41.7492C3.14113 42.5673 3.74694 43.5094 4.76953 43.8535C5.79212 44.1976 6.84425 43.8134 7.11953 42.9953Z" fill="#FDC9A6"/>
<path d="M10.9375 28.6802L13.3314 23.7095C13.5535 23.3208 13.8744 22.9978 14.2615 22.7732C14.6487 22.5485 15.0883 22.4302 15.5359 22.4302H28.8163C29.381 22.4302 29.9295 22.6184 30.3752 22.965L36.7188 27.8989L32.0312 30.2427L29.6875 28.6802V45.8677H15.625L16.4062 28.6802L15 31.8052L10.9375 28.6802Z" fill="#EAE9E4"/>
<path d="M24.6084 24.7739V38.8364C24.6084 38.94 24.5672 39.0394 24.494 39.1126C24.4207 39.1859 24.3214 39.2271 24.2178 39.2271C24.1142 39.2271 24.0148 39.1859 23.9416 39.1126C23.8683 39.0394 23.8271 38.94 23.8271 38.8364V24.9692L20.4414 22.4302H21.7432L24.4521 24.4614C24.5007 24.4978 24.54 24.545 24.5672 24.5992C24.5943 24.6535 24.6084 24.7133 24.6084 24.7739Z" fill="#EAE9E4"/>
<path d="M24.6084 24.7739V38.8364C24.6084 38.94 24.5672 39.0394 24.494 39.1126C24.4207 39.1859 24.3214 39.2271 24.2178 39.2271C24.1142 39.2271 24.0148 39.1859 23.9416 39.1126C23.8683 39.0394 23.8271 38.94 23.8271 38.8364V24.9692L20.4414 22.4302H21.7432L24.4521 24.4614C24.5007 24.4978 24.54 24.545 24.5672 24.5992C24.5943 24.6535 24.6084 24.7133 24.6084 24.7739Z" fill="#BBBAB6"/>
<path d="M26.949 17.5171L27.784 17.0996C28.0147 16.9843 28.2203 16.8247 28.3892 16.6299C28.5582 16.4351 28.6871 16.209 28.7686 15.9644C28.9261 15.4919 28.9489 14.985 28.8345 14.5003C28.7201 14.0156 28.473 13.5724 28.1209 13.2202C27.7687 12.8681 27.3255 12.621 26.8408 12.5066C26.3561 12.3922 25.8492 12.415 25.3767 12.5725L25.3561 12.5793C24.8753 12.7396 24.3505 12.7023 23.8972 12.4757C23.6319 12.343 23.3394 12.2739 23.0427 12.2739C22.7461 12.2739 22.4535 12.343 22.1882 12.4757C21.7243 12.7076 21.329 13.0566 21.0413 13.4882C20.6914 14.0129 20.4661 14.6106 20.3823 15.2356C20.2986 15.8607 20.3588 16.4966 20.5583 17.0948C20.6508 17.3726 20.8068 17.6249 21.0138 17.8319L22.2616 19.0796L23.0428 15.9546H26.9491L26.949 17.5171Z" fill="#7A4922"/>
<path d="M24.9961 21.4233H24.6055L23.8242 22.4302H20.6992L22.2617 19.8608V19.0796H21.4805C21.2733 19.0796 21.0746 18.9973 20.928 18.8508C20.7815 18.7043 20.6992 18.5055 20.6992 18.2983C20.6992 18.0911 20.7815 17.8924 20.928 17.7459C21.0746 17.5994 21.2733 17.5171 21.4805 17.5171H22.2617L23.043 15.9546H26.9492V19.4702C26.9492 19.9882 26.7434 20.485 26.3772 20.8513C26.0109 21.2176 25.5141 21.4233 24.9961 21.4233Z" fill="#FDC9A6"/>
<path d="M22.1875 8.21143H27.8125V13.0552H22.1875V8.21143Z" fill="#BBBAB6"/>
<path d="M2.34375 45.8677H47.6562V48.2114H2.34375V45.8677Z" fill="#7A4922"/>
<path d="M27.8117 6.33649C27.7584 6.33649 27.7059 6.34011 27.6537 6.3445C27.461 5.79419 27.102 5.31736 26.6265 4.98C26.1509 4.64264 25.5823 4.46143 24.9992 4.46143C24.4161 4.46143 23.8475 4.64264 23.3719 4.98C22.8963 5.31736 22.5374 5.79419 22.3447 6.3445C22.2925 6.34011 22.24 6.33649 22.1867 6.33649C21.8827 6.33599 21.5831 6.40942 21.3138 6.55044C21.0445 6.69147 20.8135 6.89586 20.6407 7.14601C20.468 7.39616 20.3587 7.68457 20.3222 7.98637C20.2857 8.28818 20.3231 8.59434 20.4312 8.87846C20.5394 9.16258 20.715 9.41615 20.9429 9.61731C21.1708 9.81847 21.4443 9.96119 21.7396 10.0332C22.035 10.1052 22.3434 10.1042 22.6383 10.0305C22.9333 9.95678 23.2059 9.81244 23.4326 9.60993C23.896 9.92062 24.4413 10.0865 24.9992 10.0865C25.5571 10.0865 26.1024 9.92062 26.5658 9.60993C26.7925 9.81194 27.065 9.95582 27.3596 10.0292C27.6543 10.1026 27.9624 10.1033 28.2574 10.0312C28.5524 9.95908 28.8254 9.8164 29.053 9.61539C29.2806 9.41438 29.456 9.16107 29.564 8.87727C29.672 8.59346 29.7095 8.28766 29.6731 7.98618C29.6368 7.68469 29.5277 7.39656 29.3553 7.14658C29.1829 6.8966 28.9523 6.69226 28.6834 6.55115C28.4145 6.41003 28.1154 6.33637 27.8117 6.33649Z" fill="#EAE9E4"/>
<path d="M26.1222 34.089C25.9997 34.3339 25.9574 34.6112 26.0012 34.8815C26.045 35.1518 26.1728 35.4015 26.3664 35.5952L27.7688 36.9978C27.8051 37.034 27.8482 37.0628 27.8955 37.0824C27.9429 37.1021 27.9937 37.1122 28.045 37.1122C28.0963 37.1122 28.1471 37.1021 28.1945 37.0824C28.2419 37.0628 28.285 37.034 28.3213 36.9978L29.7238 35.5952C29.9174 35.4015 30.0452 35.1518 30.089 34.8815C30.1328 34.6112 30.0905 34.3339 29.9679 34.089C29.8596 33.8723 29.6931 33.6901 29.4871 33.5627C29.2811 33.4353 29.0437 33.3678 28.8014 33.3677H27.2893C27.047 33.3677 26.8095 33.4351 26.6033 33.5625C26.3972 33.6899 26.2306 33.8722 26.1222 34.089Z" fill="#E42A3C"/>
<path d="M34.375 42.7428L17.9688 42.6797V44.2422L25 44.2692V45.8678H27.3438V44.2782L34.375 44.3053V42.7428Z" fill="#BBBAB6"/>
<path d="M21.875 27.1177C22.3065 27.1177 22.6562 26.7679 22.6562 26.3364C22.6562 25.905 22.3065 25.5552 21.875 25.5552C21.4435 25.5552 21.0938 25.905 21.0938 26.3364C21.0938 26.7679 21.4435 27.1177 21.875 27.1177Z" fill="#BBBAB6"/>
<path d="M21.875 31.0239C22.3065 31.0239 22.6562 30.6741 22.6562 30.2427C22.6562 29.8112 22.3065 29.4614 21.875 29.4614C21.4435 29.4614 21.0938 29.8112 21.0938 30.2427C21.0938 30.6741 21.4435 31.0239 21.875 31.0239Z" fill="#BBBAB6"/>
<path d="M21.875 34.9302C22.3065 34.9302 22.6562 34.5804 22.6562 34.1489C22.6562 33.7175 22.3065 33.3677 21.875 33.3677C21.4435 33.3677 21.0938 33.7175 21.0938 34.1489C21.0938 34.5804 21.4435 34.9302 21.875 34.9302Z" fill="#BBBAB6"/>
<path d="M40.3672 42.041C40.2905 42.041 40.2156 42.0185 40.1516 41.9762C40.0877 41.9339 40.0376 41.8737 40.0077 41.8031C39.9777 41.7326 39.9691 41.6548 39.9831 41.5794C39.997 41.504 40.0328 41.4344 40.086 41.3792L43.1781 38.1742C43.2136 38.1366 43.2561 38.1063 43.3033 38.0852C43.3506 38.0641 43.4015 38.0526 43.4532 38.0514C43.5049 38.0501 43.5563 38.0592 43.6045 38.0779C43.6527 38.0967 43.6966 38.1249 43.7338 38.1608C43.7711 38.1967 43.8008 38.2396 43.8213 38.2871C43.8418 38.3346 43.8526 38.3856 43.8532 38.4373C43.8538 38.489 43.8442 38.5403 43.8248 38.5883C43.8054 38.6362 43.7767 38.6798 43.7403 38.7166L40.6483 41.9217C40.6119 41.9595 40.5683 41.9895 40.5199 42.01C40.4716 42.0305 40.4197 42.0411 40.3672 42.041Z" fill="#BBBAB6"/>
<path d="M7.20703 44.3052C8.06998 44.3052 8.76953 43.4307 8.76953 42.3521C8.76953 41.2734 8.06998 40.3989 7.20703 40.3989C6.34409 40.3989 5.64453 41.2734 5.64453 42.3521C5.64453 43.4307 6.34409 44.3052 7.20703 44.3052Z" fill="#F0BF9E"/>
<path d="M10.4355 44.0343C11.4312 43.619 11.969 42.6366 11.6367 41.8401C11.3045 41.0436 10.228 40.7346 9.23242 41.1499C8.2368 41.5652 7.69902 42.5475 8.03125 43.344C8.36348 44.1405 9.43992 44.4496 10.4355 44.0343Z" fill="#FDC9A6"/>
<path d="M2.34375 43.5239H13.2812C13.2812 44.1455 13.0343 44.7417 12.5948 45.1812C12.1552 45.6207 11.5591 45.8677 10.9375 45.8677H4.6875C4.0659 45.8677 3.46976 45.6207 3.03022 45.1812C2.59068 44.7417 2.34375 44.1455 2.34375 43.5239Z" fill="#C7830B"/>
<path d="M35.4793 27.0494L24.2188 31.024V33.7801L26.2669 35.017C26.3861 35.0889 26.5219 35.1288 26.6611 35.1327C26.8003 35.1367 26.9381 35.1045 27.0612 35.0393C27.1843 34.9741 27.2883 34.8782 27.3633 34.7609C27.4383 34.6435 27.4816 34.5088 27.4891 34.3697C27.4958 34.2447 27.4733 34.1198 27.4233 34.005C27.3734 33.8902 27.2975 33.7886 27.2015 33.7083L26.1712 32.8457L27.6041 32.2226L28.632 32.6276L28.2271 33.6555C28.2901 33.8004 28.3902 33.9261 28.5173 34.02C28.6443 34.1138 28.7939 34.1725 28.9509 34.1901C29.1079 34.2078 29.2667 34.1837 29.4114 34.1203C29.5561 34.057 29.6816 33.9566 29.7751 33.8293L30.688 32.5865L36.6876 31.1939C36.9854 31.1248 37.2651 30.9932 37.5083 30.808C37.7515 30.6228 37.9527 30.3881 38.0985 30.1194C38.2443 29.8507 38.3315 29.5542 38.3543 29.2493C38.377 28.9444 38.3349 28.6382 38.2306 28.3509C38.0362 27.815 37.6381 27.3776 37.1228 27.1339C36.6075 26.8901 36.0168 26.8598 35.4793 27.0494Z" fill="#FDC9A6"/>
<path d="M27.8125 40.7896C26.5625 40.7896 26.5625 40.0083 25.3125 40.0083C24.0625 40.0083 24.0625 40.7896 22.8125 40.7896C21.5625 40.7896 21.5625 40.0083 20.3125 40.0083H19.5312V42.7427H32.8125V40.7896C31.5625 40.7896 31.5625 40.0083 30.3125 40.0083C29.0625 40.0083 29.0625 40.7896 27.8125 40.7896Z" fill="#ECAB2C"/>
<path d="M19.5312 38.8364V40.0083H20.3125C21.5625 40.0083 21.5625 40.7896 22.8125 40.7896C24.0625 40.7896 24.0625 40.0083 25.3125 40.0083C26.5625 40.0083 26.5625 40.7896 27.8125 40.7896C29.0625 40.7896 29.0625 40.0083 30.3125 40.0083C31.5625 40.0083 31.5625 40.7896 32.8125 40.7896V38.8364H19.5312Z" fill="#E42A3C"/>
<path d="M14.9992 31.8052L14.0617 33.3677L17.9679 37.2739L20.3117 38.0552V40.3989L21.0929 41.1802L19.5304 42.7427H16.4054L15.6242 41.1802L9.56746 35.7291C9.07016 35.2815 8.74105 34.6772 8.63482 34.0167C8.5286 33.3561 8.65167 32.6791 8.98357 32.0981L10.9367 28.6802L14.9992 31.8052Z" fill="#FDC9A6"/>
<path d="M36.2891 41.1802H47.2266C47.2266 42.4234 46.7327 43.6157 45.8536 44.4947C44.9745 45.3738 43.7823 45.8677 42.5391 45.8677H40.9766C39.7334 45.8677 38.5411 45.3738 37.662 44.4947C36.7829 43.6157 36.2891 42.4234 36.2891 41.1802Z" fill="#C7830B"/>
<path d="M43.1454 37.1061L42.7597 37.5059C42.5468 37.7266 42.4302 38.0228 42.4357 38.3294C42.4412 38.636 42.5683 38.9279 42.789 39.1408C42.8982 39.2462 43.0272 39.3291 43.1685 39.3847C43.3098 39.4403 43.4606 39.4675 43.6125 39.4648C43.7643 39.462 43.9141 39.4294 44.0533 39.3688C44.1925 39.3082 44.3184 39.2208 44.4238 39.1115L44.8095 38.7118C45.0857 38.4254 45.4064 38.1854 45.7591 38.0012C46.4695 37.6298 47.0593 37.0637 47.4594 36.369C47.6242 36.0828 47.6886 35.7497 47.6423 35.4227C47.5961 35.0957 47.4419 34.7935 47.2042 34.5642C46.9665 34.3349 46.6591 34.1916 46.3306 34.157C46.0022 34.1225 45.6716 34.1987 45.3915 34.3736C44.7116 34.7983 44.167 35.4081 43.8215 36.1314C43.65 36.4905 43.4217 36.8197 43.1454 37.1061Z" fill="#7A4922"/>
</svg>
