<svg width="50" height="61" viewBox="0 0 50 61" fill="none" xmlns="http://www.w3.org/2000/svg">
<g clip-path="url(#clip0_375_3684)">
<path d="M17.9089 55.5551H0V49.2472C0 46.8598 0.966992 44.7425 2.72305 43.2855C4.33154 41.9508 6.54453 41.2158 8.9544 41.2158C11.3642 41.2158 13.5771 41.9508 15.1857 43.2855C16.9418 44.7425 17.909 46.8598 17.909 49.2472V55.5551H17.9089Z" fill="#50C5FF"/>
<path d="M17.9096 49.2472C17.9096 46.8598 16.9425 44.7425 15.1863 43.2855C13.5777 41.9509 11.3648 41.2158 8.95508 41.2158V55.5551H17.9095L17.9096 49.2472Z" fill="#488AFF"/>
<path d="M8.95459 44.1455C5.76699 44.1455 3.17383 41.5522 3.17383 38.3647C3.17383 35.1772 5.76709 32.584 8.95459 32.584C12.1422 32.584 14.7354 35.1772 14.7354 38.3647C14.7354 41.5522 12.1422 44.1455 8.95459 44.1455Z" fill="#FFB19E"/>
<path d="M8.95508 32.584V44.1456C12.1427 44.1456 14.7358 41.5523 14.7358 38.3648C14.7358 35.1773 12.1427 32.584 8.95508 32.584Z" fill="#E59788"/>
<path d="M50.0007 55.5551H32.0918V49.2472C32.0918 46.8598 33.0588 44.7425 34.8148 43.2855C36.4233 41.9508 38.6363 41.2158 41.0462 41.2158C43.456 41.2158 45.6689 41.9508 47.2775 43.2855C49.0336 44.7425 50.0007 46.8598 50.0007 49.2472V55.5551Z" fill="#50C5FF"/>
<path d="M49.9994 49.2472C49.9994 46.8598 49.0323 44.7425 47.2762 43.2855C45.6677 41.9509 43.4547 41.2158 41.0449 41.2158V55.5551H49.9994V49.2472Z" fill="#488AFF"/>
<path d="M41.0464 44.1455C37.8588 44.1455 35.2656 41.5522 35.2656 38.3647C35.2656 35.1772 37.8589 32.584 41.0464 32.584C44.234 32.584 46.8272 35.1772 46.8272 38.3647C46.8272 41.5522 44.2339 44.1455 41.0464 44.1455Z" fill="#FFB19E"/>
<path d="M41.0449 32.584V44.1456C44.2325 44.1456 46.8257 41.5523 46.8257 38.3648C46.8257 35.1773 44.2324 32.584 41.0449 32.584Z" fill="#E59788"/>
<path d="M24.9998 20.2115L30.7431 23.231L29.6462 16.8357L34.2926 12.3066L27.8715 11.3737L24.9998 5.55518L22.1281 11.3737L15.707 12.3066L20.3534 16.8357L19.2565 23.2309L24.9998 20.2115Z" fill="#FFB725"/>
<path d="M34.2928 12.3066L27.8717 11.3737L25 5.55518V20.2115L30.7433 23.231L29.6464 16.8357L34.2928 12.3066Z" fill="#FF9000"/>
<path d="M39.191 55.5554H10.8105V53.9992C10.8105 50.1986 12.2824 46.9685 15.0671 44.6579C17.6166 42.5425 21.1443 41.3774 25.0006 41.3774C28.8566 41.3774 32.3845 42.5425 34.9342 44.6579C37.719 46.9686 39.191 50.1987 39.191 53.9992V55.5554Z" fill="#48568C"/>
<path d="M39.1902 53.9992C39.1902 50.1987 37.7183 46.9685 34.9334 44.6579C32.3838 42.5425 28.8561 41.3774 25 41.3774V55.5554H39.1902V53.9992Z" fill="#2C3B73"/>
<path d="M24.9991 44.3068C20.1479 44.3068 16.2012 40.3601 16.2012 35.5089C16.2012 30.6577 20.1479 26.7109 24.9991 26.7109C29.8505 26.7109 33.7973 30.6577 33.7973 35.5089C33.7973 40.3601 29.8505 44.3068 24.9991 44.3068Z" fill="#F9C4B9"/>
<path d="M33.798 35.5089C33.798 30.6577 29.8513 26.711 25 26.7109V44.3068C29.8513 44.3067 33.798 40.3601 33.798 35.5089Z" fill="#FFB19E"/>
<path d="M13.5193 27.6924L11.7597 22.7354L14.8455 18.476L9.58779 18.6178L6.49023 14.3667L5 19.4112L0 21.0433L4.33721 24.0192L4.34453 29.2791L8.51494 26.0739L13.5193 27.6924Z" fill="#FFB725"/>
<path d="M13.5191 27.6926L11.7595 22.7356L14.8453 18.4762L9.5876 18.618L6.49023 14.3672L8.51475 26.0741L13.5191 27.6926Z" fill="#FF9000"/>
<path d="M36.4805 27.6924L38.2401 22.7354L35.1543 18.476L40.412 18.6178L43.5096 14.3667L44.9998 19.4112L49.9998 21.0433L45.6626 24.0192L45.6553 29.2791L41.4849 26.0739L36.4805 27.6924Z" fill="#FF9000"/>
<path d="M36.4805 27.6926L38.2401 22.7356L35.1543 18.4762L40.412 18.618L43.5094 14.3672L41.4849 26.0741L36.4805 27.6926Z" fill="#FFB725"/>
</g>
<defs>
<clipPath id="clip0_375_3684">
<rect width="50" height="50" fill="white" transform="translate(0 5.55518)"/>
</clipPath>
</defs>
</svg>
