<svg width="50" height="61" viewBox="0 0 50 61" fill="none" xmlns="http://www.w3.org/2000/svg">
<g clip-path="url(#clip0_375_3826)">
<path fill-rule="evenodd" clip-rule="evenodd" d="M47.0783 48.9729V21.3091H2.92188V48.9729C2.92188 49.2202 3.12412 49.4225 3.37139 49.4225H46.6289C46.8761 49.4225 47.0783 49.2201 47.0783 48.9729Z" fill="#EFF6FF"/>
<path fill-rule="evenodd" clip-rule="evenodd" d="M31.4976 44.267L16.4454 32.1924L15.6953 34.7882L25.7892 47.3854L31.4976 44.267Z" fill="#FE8D94"/>
<path fill-rule="evenodd" clip-rule="evenodd" d="M25.7899 47.3854L15.6961 34.7881L14.5078 38.9011L22.6716 49.0878L25.7899 47.3854Z" fill="#CCF49F"/>
<path fill-rule="evenodd" clip-rule="evenodd" d="M22.6719 49.0881L14.5081 38.9014L12.8281 44.7195L16.5981 49.4225L18.2613 51.4957L22.0595 49.4225L22.6719 49.0881Z" fill="#FE8D94"/>
<path fill-rule="evenodd" clip-rule="evenodd" d="M16.5971 49.4222L12.8271 44.7192L11.6387 48.8294L12.1135 49.4222L15.1419 53.198L18.2603 51.4954L16.5971 49.4222Z" fill="#CCF49F"/>
<path fill-rule="evenodd" clip-rule="evenodd" d="M15.1426 53.1981L12.1142 49.4224L11.6394 48.8296L11.4708 49.4224L10.0773 54.2433C9.8835 55.1423 9.97344 55.5468 10.4116 55.5553H10.4369C10.6532 55.5524 10.951 55.4541 11.3387 55.2771L15.1426 53.1981Z" fill="#FE8D94"/>
<path fill-rule="evenodd" clip-rule="evenodd" d="M2.92188 22.3009H47.0783V17.8228H17.9122H2.92188V22.3009Z" fill="#9FD4FE"/>
<path fill-rule="evenodd" clip-rule="evenodd" d="M17.9123 18.8115H47.0784V11.2347C47.0784 10.9874 46.8762 10.7852 46.6289 10.7852C32.2088 10.7852 17.7887 10.7852 3.37139 10.7852C3.12412 10.7852 2.92188 10.9874 2.92188 11.2347V18.8115H17.9123Z" fill="#FE8D94"/>
<path d="M14.2706 8.99023V10.7851H12.784V8.99023C12.784 7.91592 11.9089 7.0418 10.8325 7.0418C9.7582 7.0418 8.88506 7.91592 8.88506 8.99023V12.58C8.88506 13.6543 9.7582 14.5284 10.8325 14.5284C11.2428 14.5284 11.5758 14.8614 11.5758 15.2717C11.5758 15.6819 11.2428 16.0149 10.8325 16.0149C8.93857 16.0149 7.39844 14.4738 7.39844 12.5799V8.99023C7.39844 7.09629 8.93857 5.55518 10.8325 5.55518C12.7284 5.55518 14.2706 7.09629 14.2706 8.99023Z" fill="#FDE588"/>
<path d="M23.9483 8.99023V10.7851H22.4617V8.99023C22.4617 7.91592 21.5866 7.0418 20.5103 7.0418C19.4369 7.0418 18.5628 7.91592 18.5628 8.99023V12.58C18.5628 13.6543 19.4369 14.5284 20.5103 14.5284C20.9216 14.5284 21.2535 14.8614 21.2535 15.2717C21.2535 15.6819 20.9215 16.0149 20.5103 16.0149C18.6163 16.0149 17.0762 14.4738 17.0762 12.5799V8.99023C17.0762 7.09629 18.6164 5.55518 20.5104 5.55518C22.4062 5.55518 23.9483 7.09629 23.9483 8.99023Z" fill="#FDE588"/>
<path d="M33.6261 8.99023V10.7851H32.1395V8.99023C32.1395 7.91592 31.2644 7.0418 30.188 7.0418C29.1146 7.0418 28.2405 7.91592 28.2405 8.99023V12.58C28.2405 13.6543 29.1146 14.5284 30.188 14.5284C30.5993 14.5284 30.9313 14.8614 30.9313 15.2717C30.9313 15.6819 30.5992 16.0149 30.188 16.0149C28.295 16.0149 26.7539 14.4738 26.7539 12.5799V8.99023C26.7539 7.09629 28.295 5.55518 30.188 5.55518C32.084 5.55518 33.6261 7.09629 33.6261 8.99023Z" fill="#FDE588"/>
<path d="M43.3037 8.99023V10.7851H41.8171V8.99023C41.8171 7.91592 40.943 7.0418 39.8686 7.0418C38.7934 7.0418 37.9182 7.91592 37.9182 8.99023V12.58C37.9182 13.6543 38.7933 14.5284 39.8686 14.5284C40.28 14.5284 40.612 14.8614 40.612 15.2717C40.612 15.6819 40.28 16.0149 39.8686 16.0149C37.9737 16.0149 36.4316 14.4738 36.4316 12.5799V8.99023C36.4315 7.09629 37.9736 5.55518 39.8686 5.55518C41.7626 5.55518 43.3037 7.09629 43.3037 8.99023Z" fill="#FDE588"/>
<path d="M28.2213 32.9217C28.0582 32.9217 27.8941 32.8683 27.7569 32.7584C27.4367 32.5016 27.3851 32.0339 27.6419 31.7134L30.4119 28.2579C30.6687 27.9376 31.1362 27.8861 31.4569 28.1429C31.7771 28.3997 31.8286 28.8674 31.5718 29.1879L28.8018 32.6434C28.6549 32.8265 28.4391 32.9217 28.2213 32.9217Z" fill="#FE8D94"/>
<path d="M22.9051 33.9669C22.7316 33.9669 22.5573 33.9066 22.4164 33.7833C22.1072 33.5133 22.0756 33.0437 22.3458 32.7346C23.3 31.6425 24.3872 30.3121 25.216 28.7248C25.4059 28.3608 25.8549 28.2197 26.2189 28.4098C26.5828 28.5998 26.7238 29.0488 26.5339 29.4127C25.6329 31.1384 24.4771 32.5548 23.4653 33.7128C23.3182 33.8809 23.1122 33.9669 22.9051 33.9669Z" fill="#9FD4FE"/>
<path d="M28.356 38.3382C28.2031 38.3382 28.0489 38.2911 27.9164 38.1937C27.5855 37.9504 27.5146 37.4852 27.7578 37.1545C28.6709 35.9126 29.8044 34.4749 31.289 33.2275C31.6034 32.9634 32.0722 33.004 32.3363 33.3184C32.6005 33.6327 32.5596 34.1016 32.2454 34.3657C30.8806 35.5123 29.8165 36.8641 28.9555 38.0351C28.8097 38.2331 28.5845 38.3382 28.356 38.3382Z" fill="#9FD4FE"/>
<path d="M31.7876 41.0915C31.6388 41.0915 31.4886 41.0469 31.3579 40.9542C31.0233 40.7165 30.9445 40.2525 31.1822 39.9178C32.5721 37.9608 34.6302 35.6926 38.2397 35.5209C38.6483 35.501 38.998 35.818 39.0174 36.228C39.0369 36.6381 38.7203 36.9863 38.3103 37.0058C35.3585 37.1462 33.6633 38.9917 32.3943 40.7785C32.2493 40.9826 32.0202 41.0915 31.7876 41.0915Z" fill="#FE8D94"/>
<path d="M20.5045 30.7728C20.3754 30.7728 20.2447 30.7393 20.1257 30.6686C19.7727 30.4591 19.6564 30.003 19.866 29.6501C20.2841 28.9455 20.6923 28.0529 20.5476 26.7756C20.5013 26.3678 20.7946 25.9996 21.2026 25.9534C21.609 25.9078 21.9785 26.2004 22.0248 26.6084C22.2202 28.3332 21.6569 29.5455 21.1443 30.409C21.0054 30.6429 20.7582 30.7728 20.5045 30.7728Z" fill="#FE8D94"/>
<path fill-rule="evenodd" clip-rule="evenodd" d="M10.9201 51.3243L10.0773 54.2433C9.8835 55.1423 9.97344 55.5468 10.4116 55.5553H10.4369C10.6532 55.5524 10.951 55.4541 11.3387 55.2772L15.1425 53.1982L12.8107 50.2905L10.9201 51.3243Z" fill="#FF6D75"/>
<path fill-rule="evenodd" clip-rule="evenodd" d="M12.8105 50.2904L15.1423 53.1981L18.2606 51.4956L16.5975 49.4224L15.9289 48.5879L14.4034 49.4224L12.8105 50.2904Z" fill="#B3E59F"/>
<path fill-rule="evenodd" clip-rule="evenodd" d="M15.9297 48.5881L16.5982 49.4226L18.2614 51.4958L22.0596 49.4226L22.672 49.0882L20.3402 46.1777L15.9297 48.5881Z" fill="#FF6D75"/>
<path fill-rule="evenodd" clip-rule="evenodd" d="M20.3398 46.1776L22.6716 49.0881L25.7899 47.3856L23.4582 44.4751L20.3398 46.1776Z" fill="#B3E59F"/>
<path fill-rule="evenodd" clip-rule="evenodd" d="M23.457 44.4748L25.7888 47.3854L31.4972 44.2669L28.393 41.7778L23.457 44.4748Z" fill="#FF6D75"/>
<path fill-rule="evenodd" clip-rule="evenodd" d="M42.9883 10.7852V17.8227V18.8115H47.0786V17.8227V11.2347C47.0786 10.9874 46.8764 10.7852 46.6291 10.7852H43.7328H42.9883Z" fill="#FF6D75"/>
<path fill-rule="evenodd" clip-rule="evenodd" d="M42.9883 18.8115V21.3091V22.3008H47.0786V21.3091V18.8115H42.9883Z" fill="#85BEEF"/>
<path fill-rule="evenodd" clip-rule="evenodd" d="M42.9883 22.3008V49.4225H44.657H46.6292C46.8764 49.4225 47.0787 49.2202 47.0787 48.9729V22.3008H42.9883Z" fill="#D9EEFF"/>
<path fill-rule="evenodd" clip-rule="evenodd" d="M2.92188 22.3008H47.0783V25.3293H2.92188V22.3008Z" fill="#D9EEFF"/>
<path d="M32.8653 46.1061C32.7021 46.1061 32.5378 46.0527 32.4007 45.9427L14.6123 31.6767C14.292 31.4199 14.2406 30.952 14.4975 30.6317C14.7544 30.3117 15.2222 30.2601 15.5424 30.517L33.3308 44.783C33.651 45.0397 33.7025 45.5076 33.4456 45.8279C33.2988 46.0109 33.0831 46.1061 32.8653 46.1061Z" fill="#FDE588"/>
</g>
<defs>
<clipPath id="clip0_375_3826">
<rect width="50" height="50" fill="white" transform="translate(0 5.55518)"/>
</clipPath>
</defs>
</svg>
