<svg width="81" height="81" viewBox="0 0 81 81" fill="none" xmlns="http://www.w3.org/2000/svg">
<g id="home.svg">
<path id="Vector" d="M56.5 22.8701V12.2451C56.5 10.0902 57.356 8.02361 58.8798 6.49987C60.4035 4.97614 62.4701 4.12012 64.625 4.12012C66.7799 4.12012 68.8465 4.97614 70.3703 6.49987C71.894 8.02361 72.75 10.0902 72.75 12.2451V22.8701H56.5Z" fill="#B36F42"/>
<path id="Vector_2" d="M72.75 40.3701C71.9425 37.1403 72.2982 33.7293 73.7546 30.7356L74.1471 29.9289L74.7382 29.4117C75.2916 28.9275 75.7351 28.3305 76.039 27.6609C76.3428 26.9913 76.5 26.2645 76.5 25.5291C76.5 24.1609 75.9565 22.8487 74.989 21.8812C74.0215 20.9137 72.7093 20.3701 71.341 20.3701H57.8388C56.1812 20.3701 54.5915 21.0286 53.4194 22.2007L50.25 25.3701V31.6201H57.75V40.3701H72.75Z" fill="#F5A431"/>
<path id="Vector_3" d="M67.75 14.1201V19.7451C67.75 20.5739 67.4208 21.3688 66.8347 21.9548C66.2487 22.5409 65.4538 22.8701 64.625 22.8701C63.7962 22.8701 63.0013 22.5409 62.4153 21.9548C61.8292 21.3688 61.5 20.5739 61.5 19.7451V14.1201H67.75Z" fill="#FFCEB6"/>
<path id="Vector_4" d="M30.25 12.8701H50.25V34.1201H30.25V12.8701Z" fill="#F7C04A"/>
<path id="Vector_5" d="M4 41.6201V22.6154C4 20.6939 4.76334 18.851 6.12211 17.4922C7.48087 16.1335 9.32374 15.3701 11.2453 15.3701H23.9112C25.5688 15.3701 27.1585 16.0286 28.3306 17.2007L30.25 19.1201V29.1201L25.25 24.1201V41.6201H4Z" fill="#ED6445"/>
<path id="Vector_6" d="M66.5 14.1201V15.3701C66.5 15.8626 66.403 16.3502 66.2146 16.8052C66.0261 17.2602 65.7499 17.6736 65.4017 18.0218C65.0534 18.37 64.64 18.6462 64.1851 18.8347C63.7301 19.0231 63.2425 19.1201 62.75 19.1201H61.5V14.1201H66.5Z" fill="#FFBFA1"/>
<path id="Vector_7" d="M8.25023 28.2781C7.79184 27.7624 7.00218 27.716 6.48648 28.1744C5.97079 28.6328 5.92434 29.4224 6.38273 29.9381L8.05425 31.8186C8.51265 32.3343 9.3023 32.3807 9.818 31.9223C10.3337 31.464 10.3801 30.6743 9.92175 30.1586L8.25023 28.2781Z" fill="#DE402F"/>
<path id="Vector_8" d="M14.517 24.3141C14.0855 23.775 13.2986 23.6877 12.7595 24.1191C12.2203 24.5506 12.133 25.3375 12.5645 25.8766L13.8158 27.4403C14.2473 27.9795 15.0342 28.0668 15.5733 27.6353C16.1125 27.2039 16.1998 26.417 15.7683 25.8778L14.517 24.3141Z" fill="#DE402F"/>
<path id="Vector_9" d="M22.75 15.3701V20.3701L17.75 17.8701L12.75 20.3701V15.3701H22.75Z" fill="#F79A7E"/>
<path id="Vector_10" d="M19 18.4951V22.8701C19 23.2016 18.8683 23.5196 18.6339 23.754C18.3995 23.9884 18.0815 24.1201 17.75 24.1201C17.4185 24.1201 17.1005 23.9884 16.8661 23.754C16.6317 23.5196 16.5 23.2016 16.5 22.8701V18.4951L17.75 17.8701L19 18.4951Z" fill="#DE402F"/>
<path id="Vector_11" d="M19 15.3701V18.4951L17.75 17.8701L16.5 18.4951V15.3701H19Z" fill="#F28868"/>
<path id="Vector_12" d="M15.5631 27.6357L17.7506 30.3701H30.2506L32.4918 28.129C32.5738 28.0469 32.6713 27.9818 32.7785 27.9374C32.8858 27.893 33.0007 27.8701 33.1168 27.8701C33.3512 27.8701 33.576 27.9632 33.7418 28.129C33.9075 28.2948 34.0006 28.5196 34.0006 28.754V31.6201L37.0255 33.6367C37.2486 33.7854 37.4315 33.9869 37.558 34.2232C37.6845 34.4596 37.7506 34.7236 37.7506 34.9916C37.7507 35.2055 37.7085 35.4173 37.6267 35.6148C37.5449 35.8124 37.4249 35.9919 37.2737 36.1431C37.1225 36.2944 36.9429 36.4143 36.7454 36.4962C36.5478 36.578 36.336 36.6201 36.1222 36.6201H16.8073C15.9247 36.6201 15.0521 36.4332 14.247 36.0716C13.4418 35.7101 12.7224 35.1821 12.136 34.5224L9.83398 31.9326L15.5631 27.6357Z" fill="#FFCEB6"/>
<path id="Vector_13" d="M21.5 77.8701L15.25 50.3701L11.5 77.8701H4V41.6201H25.25L31.5 77.8701H21.5Z" fill="#445496"/>
<g id="Group">
<path id="Vector_14" d="M67.2584 25.1534L65.738 26.3701C65.1988 26.8016 65.1115 27.5884 65.543 28.1276C65.9744 28.6668 66.7613 28.7541 67.3005 28.3226L68.8209 27.1059C69.36 26.6744 69.4473 25.8876 69.0159 25.3484C68.5844 24.8092 67.7975 24.7219 67.2584 25.1534Z" fill="#EB8117"/>
<path id="Vector_15" d="M72.3974 29.8583L70.6307 31.4021C70.1109 31.8564 70.0577 32.646 70.5119 33.1658C70.9661 33.6856 71.7558 33.7387 72.2756 33.2845L74.0423 31.7407C74.5622 31.2864 74.6154 30.4968 74.1611 29.977C73.7069 29.4572 72.9173 29.404 72.3974 29.8583Z" fill="#EB8117"/>
<path id="Vector_16" d="M59.6248 32.2456C59.5088 32.3617 59.371 32.4538 59.2193 32.5166C59.0677 32.5794 58.9051 32.6118 58.741 32.6118C58.5768 32.6118 58.4143 32.5795 58.2626 32.5167C58.1109 32.4539 57.9731 32.3618 57.857 32.2457L56.8652 31.254C55.9585 30.3432 55.394 29.1473 55.2674 27.8684C55.1407 26.5894 55.4597 25.306 56.1702 24.2351L56.4324 23.8417C56.5235 23.7052 56.6406 23.5879 56.777 23.4965C56.9134 23.4052 57.0664 23.3416 57.2274 23.3094C57.3883 23.2772 57.5541 23.2771 57.7151 23.3089C57.8761 23.3408 58.0293 23.4041 58.1659 23.4951C58.3025 23.5862 58.4198 23.7033 58.5111 23.8397C58.6025 23.9761 58.666 24.1291 58.6982 24.2901C58.7304 24.451 58.7306 24.6168 58.6987 24.7778C58.6668 24.9388 58.6036 25.092 58.5125 25.2286L58.2503 25.6219C57.8575 26.2109 57.681 26.9179 57.7508 27.6224C57.8205 28.3269 58.1322 28.9855 58.6328 29.4861L59.6247 30.4779C59.8591 30.7123 59.9908 31.0302 59.9909 31.3617C59.9909 31.6932 59.8592 32.0112 59.6248 32.2456Z" fill="#EB8117"/>
</g>
<path id="Vector_17" d="M75.25 52.0826C75.2499 53.4388 75.1439 54.7929 74.9328 56.1326L74.8563 56.6201L71.5 77.8701H57.75V40.3701H72.75L73.9172 43.8732C74.7994 46.5204 75.2495 49.2923 75.25 52.0826Z" fill="#FFCEB6"/>
<path id="Vector_18" d="M75.25 52.0826C75.2499 53.4388 75.1439 54.7929 74.9328 56.1326L74.8563 56.6201H57.75V40.3701H72.75L73.9172 43.8732C74.7994 46.5204 75.2495 49.2923 75.25 52.0826Z" fill="#E8671C"/>
<path id="Vector_19" d="M62.75 56.6201H65.25V77.8701H62.75V56.6201Z" fill="#FFBFA1"/>
<path id="Vector_20" d="M65.25 56.6201H62.75V49.1201C62.75 48.7886 62.8817 48.4707 63.1161 48.2362C63.3505 48.0018 63.6685 47.8701 64 47.8701C64.3315 47.8701 64.6495 48.0018 64.8839 48.2362C65.1183 48.4707 65.25 48.7886 65.25 49.1201V56.6201Z" fill="#D64E13"/>
<path id="Vector_21" d="M37.75 12.8701V21.6201L40.25 20.3701L42.75 21.6201V12.8701H37.75Z" fill="#F7DFA1"/>
<path id="Vector_22" d="M14.0005 9.12012L14 12.8701C14 13.8647 14.3951 14.8185 15.0983 15.5218C15.8016 16.225 16.7554 16.6201 17.75 16.6201C18.7446 16.6201 19.6984 16.225 20.4017 15.5218C21.1049 14.8185 21.5 13.8647 21.5 12.8701V9.12012H14.0005Z" fill="#FFCEB6"/>
<path id="Vector_23" d="M17.75 4.12012C18.7446 4.12012 19.6984 4.51521 20.4017 5.21847C21.1049 5.92173 21.5 6.87556 21.5 7.87012V9.12012H14V7.87012C14 6.87556 14.3951 5.92173 15.0983 5.21847C15.8016 4.51521 16.7554 4.12012 17.75 4.12012Z" fill="#EB8117"/>
<path id="Vector_24" d="M19.0005 9.12012L15.2505 12.8701H14L14.0005 9.12012H19.0005Z" fill="#B36F42"/>
<path id="Vector_25" d="M14 7.87012H25.25V10.3701H14V7.87012Z" fill="#F5A431"/>
<path id="Vector_26" d="M67.7505 11.6196L67.7511 14.1202C67.7511 14.6127 67.654 15.1003 67.4655 15.5553C67.277 16.0103 67.0007 16.4237 66.6525 16.7719C66.3042 17.1202 65.8908 17.3964 65.4357 17.5848C64.9807 17.7732 64.493 17.8702 64.0006 17.8702C63.508 17.8702 63.0203 17.7732 62.5653 17.5847C62.1102 17.3962 61.6968 17.1199 61.3485 16.7717C61.0002 16.4234 60.724 16.0099 60.5355 15.5549C60.347 15.0999 60.25 14.6122 60.25 14.1196V11.6196L62.75 9.11963C63.0815 10.1142 63.7946 10.9364 64.7322 11.4052C65.6699 11.8741 66.7555 11.9513 67.75 11.6198L67.7505 11.6196Z" fill="#FFCEB6"/>
<path id="Vector_27" d="M70.5 33.1201L68.2673 35.0737C67.128 36.0706 65.6656 36.6201 64.1517 36.6201H44.3785C43.9466 36.6201 43.5324 36.4485 43.227 36.1431C42.9216 35.8378 42.75 35.4235 42.75 34.9916C42.75 34.7236 42.8162 34.4596 42.9427 34.2232C43.0692 33.9869 43.2521 33.7854 43.4752 33.6367L46.5 31.6201V28.754C46.5 28.5196 46.5931 28.2948 46.7589 28.129C46.9246 27.9632 47.1495 27.8701 47.3839 27.8701C47.5 27.8701 47.6149 27.893 47.7221 27.9374C47.8294 27.9818 47.9268 28.0469 48.0089 28.129L50.25 30.3701H62.75L65.5278 28.1479L70.5 33.1201Z" fill="#FFCEB6"/>
</g>
</svg>
