<svg width="81" height="81" viewBox="0 0 81 81" fill="none" xmlns="http://www.w3.org/2000/svg">
<g id="pub.svg" clip-path="url(#clip0_375_3548)">
<g id="Group">
<g id="Group_2">
<path id="Vector" d="M13.6406 0.370117H18.3281V7.40137H13.6406V0.370117Z" fill="#4E6BA6"/>
<path id="Vector_2" d="M38.4062 0.370117H43.0938V7.40137H38.4062V0.370117Z" fill="#4E6BA6"/>
<path id="Vector_3" d="M40.75 0.370117H43.0938V7.40137H40.75V0.370117Z" fill="#28487A"/>
<path id="Vector_4" d="M63.1719 0.370117H67.8594V7.40137H63.1719V0.370117Z" fill="#28487A"/>
<path id="Vector_5" d="M28.875 80.3701H24.1875C24.1875 75.8373 24.1875 71.3043 24.1875 66.7715C24.1875 65.9918 25.75 65.2123 25.75 64.4326H27.3125C27.3125 65.1425 28.875 65.8526 28.875 66.5625C28.8748 71.1651 28.875 75.7675 28.875 80.3701Z" fill="#4E6BA6"/>
<path id="Vector_6" d="M0.75 23.8076H5.4375V59.7451H0.75V23.8076Z" fill="#4E6BA6"/>
<path id="Vector_7" d="M80.75 80.3701H76.0625C76.0625 75.8373 76.0625 71.3043 76.0625 66.7715C76.0625 65.9918 77.625 65.2123 77.625 64.4326H79.1875C79.1875 65.1425 80.75 65.8526 80.75 66.5625C80.7498 71.1651 80.75 75.7675 80.75 80.3701Z" fill="#28487A"/>
<path id="Vector_8" d="M57.3125 80.3701H52.625C52.625 75.8373 52.625 71.3043 52.625 66.7715C52.625 65.9918 54.1875 65.2123 54.1875 64.4326H55.75C55.75 65.1425 57.3125 65.8526 57.3125 66.5625C57.3123 71.1651 57.3125 75.7675 57.3125 80.3701Z" fill="#28487A"/>
<path id="Vector_9" d="M38.4062 40.9951H43.0938V80.3701H38.4062V40.9951Z" fill="#4E6BA6"/>
<path id="Vector_10" d="M40.75 40.9951H43.0938V80.3701H40.75V40.9951Z" fill="#28487A"/>
<path id="Vector_11" d="M57.1562 36.3076C55.1445 36.3076 19.5031 36.3076 18.0938 36.3076V45.6826H57.1562L60.2812 40.9951L57.1562 36.3076Z" fill="#F6E486"/>
<path id="Vector_12" d="M40.75 36.3076H63.4062V45.6826H40.75V36.3076Z" fill="#F0CE46"/>
<path id="Vector_13" d="M76.0625 23.8076H80.75V59.7451H76.0625V23.8076Z" fill="#28487A"/>
<path id="Vector_14" d="M5.4375 80.3701H0.75C0.75 75.8373 0.75 71.3043 0.75 66.7715C0.75 65.9918 2.3125 65.2123 2.3125 64.4326H3.875C3.875 65.1425 5.4375 65.8526 5.4375 66.5625C5.43734 71.1651 5.4375 75.7675 5.4375 80.3701Z" fill="#4E6BA6"/>
<path id="Vector_15" d="M0.75 52.7139H28.875V66.7764H0.75V52.7139Z" fill="#8DC5E8"/>
<path id="Vector_16" d="M52.625 52.7139H80.75V66.7764H52.625V52.7139Z" fill="#5E9FF6"/>
<path id="Vector_17" d="M65.5156 19.1201C62.0391 19.1201 58.4453 19.1201 54.9688 19.1201C54.9688 17.9482 54.9688 16.7764 54.9688 15.6045C54.9688 9.78887 59.7 5.05762 65.5156 5.05762L76.0625 15.6045L65.5156 19.1201Z" fill="#ADE993"/>
<path id="Vector_18" d="M76.0625 15.6045C76.0625 9.78887 71.3313 5.05762 65.5156 5.05762V19.1201H76.0625V15.6045Z" fill="#76D081"/>
<path id="Vector_19" d="M51.2969 16.1578L40.75 19.1201C37.2734 19.1201 33.6797 19.1201 30.2031 19.1201C30.2031 17.9482 30.2031 16.7764 30.2031 15.6045C30.2031 9.78887 34.9344 5.05762 40.75 5.05762L51.2969 16.1578Z" fill="#F6E486"/>
<path id="Vector_20" d="M51.2969 15.6045C51.2969 9.78887 46.5656 5.05762 40.75 5.05762V19.1201H51.2969V15.6045Z" fill="#F0CE46"/>
</g>
<path id="Vector_21" d="M15.9844 19.1201C12.5078 19.1201 8.91406 19.1201 5.4375 19.1201C5.4375 17.9482 5.4375 16.7764 5.4375 15.6045C5.4375 9.78887 10.1687 5.05762 15.9844 5.05762L26.5312 16.2981L15.9844 19.1201Z" fill="#E17D46"/>
<path id="Vector_22" d="M26.5312 15.6045C26.5312 9.78887 21.8 5.05762 15.9844 5.05762V19.1201H26.5312V15.6045Z" fill="#DB4D6C"/>
</g>
</g>
<defs>
<clipPath id="clip0_375_3548">
<rect width="80" height="80" fill="white" transform="translate(0.75 0.370117)"/>
</clipPath>
</defs>
</svg>
