<svg width="81" height="81" viewBox="0 0 81 81" fill="none" xmlns="http://www.w3.org/2000/svg">
<g id="sit-down.svg" clip-path="url(#clip0_375_3383)">
<g id="Group">
<path id="Vector" d="M6.60938 78.6123V52.5186H16.2172V78.6123H6.60938Z" fill="#EAF6FF"/>
<path id="Vector_2" d="M65.2832 78.6123V52.5186H74.891V78.6123H65.2832Z" fill="#EAF6FF"/>
<path id="Vector_3" d="M78.0156 60.3251H3.48438C2.62141 60.3251 1.92188 59.6256 1.92188 58.7626V50.7173C1.92188 49.8543 2.62141 49.1548 3.48438 49.1548H78.0156C78.8786 49.1548 79.5781 49.8543 79.5781 50.7173V58.7626C79.5781 59.6254 78.8786 60.3251 78.0156 60.3251Z" fill="#C59191"/>
<path id="Vector_4" d="M78.0156 49.1548H73.3281C74.1911 49.1548 74.8906 49.8543 74.8906 50.7173V58.7626C74.8906 59.6256 74.1911 60.3251 73.3281 60.3251H78.0156C78.8786 60.3251 79.5781 59.6256 79.5781 58.7626V50.7173C79.5781 49.8543 78.8786 49.1548 78.0156 49.1548Z" fill="#B98080"/>
<path id="Vector_5" d="M76.1406 44.7001H5.35938C3.46094 44.7001 1.92188 43.161 1.92188 41.2626V26.811C1.92188 24.9126 3.46094 23.3735 5.35938 23.3735H76.1406C78.0391 23.3735 79.5781 24.9126 79.5781 26.811V41.2626C79.5781 43.161 78.0391 44.7001 76.1406 44.7001Z" fill="#C59191"/>
<path id="Vector_6" d="M76.1406 23.3735H71.4531C73.3516 23.3735 74.8906 24.9126 74.8906 26.811V41.2626C74.8906 43.161 73.3516 44.7001 71.4531 44.7001H76.1406C78.0391 44.7001 79.5781 43.161 79.5781 41.2626V26.811C79.5781 24.9124 78.0391 23.3735 76.1406 23.3735Z" fill="#B98080"/>
<g id="Group_2">
<path id="Vector_7" d="M6.60938 48.8916V29.6855C6.60938 27.1299 8.16531 24.8316 10.5381 23.8825L16.3636 21.5524C17.55 21.0779 18.328 19.9288 18.328 18.6508V16.0791H26.5813V18.6508C26.5813 19.9286 27.3592 21.0777 28.5456 21.5524L34.3711 23.8825C36.7439 24.8318 38.2998 27.1299 38.2998 29.6855V48.8916H6.60938Z" fill="#B0E6A0"/>
<g id="Group_3">
<path id="Vector_8" d="M25.1338 24.1264L30.3844 26.2267C32.7572 27.1757 34.3132 29.474 34.3132 32.0296V48.8918H38.2997V29.6861C38.2997 27.1304 36.7438 24.8321 34.371 23.8831L28.8894 21.6904L25.1338 24.1264Z" fill="#8DDAA7"/>
</g>
<path id="Vector_9" d="M12.4688 46.5479H32.4409V55.2288H12.4688V46.5479Z" fill="#B2CAEC"/>
<path id="Vector_10" d="M27.7539 46.5479H32.4414V55.2288H27.7539V46.5479Z" fill="#82AEE3"/>
<path id="Vector_11" d="M38.3008 48.8916H32.4414V52.2989C32.4414 53.9169 33.7531 55.2286 35.3711 55.2286C36.9891 55.2286 38.3008 53.9169 38.3008 52.2989V48.8916Z" fill="#FFCEBF"/>
<path id="Vector_12" d="M34.3135 55.0291C34.6418 55.1563 34.9972 55.2288 35.3704 55.2288C36.9883 55.2288 38.3 53.9171 38.3 52.2991C38.3 51.6071 38.3 50.163 38.3 48.8916H34.3135V55.0291Z" fill="#FFB09E"/>
<path id="Vector_13" d="M9.53906 55.2288C11.157 55.2288 12.4688 53.9171 12.4688 52.2991V48.8916H6.60938V52.2991C6.60938 53.9171 7.92109 55.2288 9.53906 55.2288Z" fill="#FFCEBF"/>
<g id="Group_4">
<path id="Vector_14" d="M30.0967 46.5479V34.8291C30.0967 34.1818 30.6212 33.6572 31.2686 33.6572C31.9159 33.6572 32.4404 34.1818 32.4404 34.8291V46.5479H30.0967Z" fill="#8DDAA7"/>
</g>
<g id="Group_5">
<path id="Vector_15" d="M12.4688 46.5479V34.8291C12.4688 34.1818 12.9933 33.6572 13.6406 33.6572C14.288 33.6572 14.8125 34.1818 14.8125 34.8291V46.5479H12.4688Z" fill="#8DDAA7"/>
</g>
<g id="Group_6">
<g id="Group_7">
<path id="Vector_16" d="M32.4412 76.2683H24.7988V55.0564C24.7988 52.9461 26.5096 51.2354 28.6199 51.2354C30.7302 51.2354 32.441 52.9461 32.441 55.0564L32.4412 76.2683Z" fill="#82AEE3"/>
<path id="Vector_17" d="M28.6201 51.2354C27.7365 51.2354 26.9236 51.5361 26.2764 52.0396C27.175 52.7388 27.7537 53.8297 27.7537 55.0564V76.2683H32.4412V55.0566C32.4414 52.9461 30.7304 51.2354 28.6201 51.2354Z" fill="#528FD8"/>
<path id="Vector_18" d="M32.3584 78.6123H24.8815C24.1887 78.6123 23.627 78.0506 23.627 77.3578C23.627 75.4618 25.164 73.9248 27.0599 73.9248H30.1801C32.076 73.9248 33.613 75.4618 33.613 77.3578C33.6129 78.0506 33.0513 78.6123 32.3584 78.6123Z" fill="#554E56"/>
</g>
<g id="Group_8">
<path id="Vector_19" d="M20.1111 76.2683H12.4688V55.0564C12.4688 52.9461 14.1795 51.2354 16.2898 51.2354C18.4002 51.2354 20.1109 52.9461 20.1109 55.0564L20.1111 76.2683Z" fill="#82AEE3"/>
<path id="Vector_20" d="M16.29 51.2354C15.4064 51.2354 14.5935 51.5361 13.9463 52.0396C14.8449 52.7388 15.4236 53.8297 15.4236 55.0564V76.2683H20.1111V55.0566C20.1113 52.9461 18.4005 51.2354 16.29 51.2354Z" fill="#528FD8"/>
<path id="Vector_21" d="M20.0284 78.6123H12.5514C11.8586 78.6123 11.2969 78.0506 11.2969 77.3578C11.2969 75.4618 12.8339 73.9248 14.7298 73.9248H17.85C19.7459 73.9248 21.283 75.4618 21.283 77.3578C21.283 78.0506 20.7213 78.6123 20.0284 78.6123Z" fill="#554E56"/>
</g>
</g>
<path id="Vector_22" d="M22.4547 24.5499C25.0078 24.5499 27.3028 23.4462 28.8898 21.6904L26.9833 21.5527C25.7969 21.0782 25.0189 19.9291 25.0189 18.6513V16.0796H18.328V18.6513C18.328 19.9291 17.55 21.0782 16.3636 21.5527L16.0195 21.6904C17.6066 23.4462 19.9016 24.5499 22.4547 24.5499Z" fill="#FFCEBF"/>
<path id="Vector_23" d="M25.1344 24.1265C26.5941 23.6524 27.8846 22.803 28.8901 21.6904C27.5652 21.1796 26.5761 20.1546 26.5816 18.6513V16.0796H22.5951V20.9951C22.5727 22.4594 23.6971 23.7707 25.1344 24.1265Z" fill="#FFB09E"/>
<path id="Vector_24" d="M22.455 18.2989C18.7793 18.2989 15.7998 15.3192 15.7998 11.6437V4.8623C15.7998 2.70496 17.5487 0.956055 19.7061 0.956055H25.2039C27.3612 0.956055 29.1101 2.70496 29.1101 4.8623V11.6437C29.1101 13.7604 28.122 15.6462 26.5818 16.8653C26.0148 17.314 25.3731 15.3286 24.6782 15.5748C24.0248 15.8064 23.3243 18.2825 22.5951 18.2975C22.5486 18.2984 22.5018 18.2989 22.455 18.2989Z" fill="#FFCEBF"/>
<path id="Vector_25" d="M25.2037 0.956055H20.5162C22.6736 0.956055 24.4225 2.70496 24.4225 4.8623V11.6437C24.4564 11.9584 24.6348 13.914 23.2114 15.4718C22.0113 16.7851 20.1298 17.315 18.3281 16.8639C18.8767 17.2903 19.8063 17.8864 21.0825 18.1565C21.5919 18.2643 22.0572 18.2993 22.4547 18.2989C26.1303 18.2989 29.1098 15.3192 29.1098 11.6437V4.8623C29.11 2.70496 27.3611 0.956055 25.2037 0.956055Z" fill="#FFB09E"/>
<path id="Vector_26" d="M29.1101 8.01934V4.8623C29.1101 2.70496 27.3612 0.956055 25.2039 0.956055H19.7061C17.5487 0.956055 15.7998 2.70496 15.7998 4.8623V8.0198L15.8003 8.01996L24.0832 6.01809C24.9864 5.7998 25.9393 5.96277 26.7187 6.4684L29.1096 8.01996L29.1101 8.01934Z" fill="#355F7F"/>
<path id="Vector_27" d="M25.2041 0.956055H20.5166C22.6739 0.956055 24.4229 2.70496 24.4229 4.8623V5.95418C25.2213 5.84574 26.0366 6.02574 26.7189 6.4684L29.1099 8.01996L29.1104 8.01934V4.8623C29.1104 2.70496 27.3614 0.956055 25.2041 0.956055Z" fill="#305972"/>
</g>
<g id="Group_9">
<path id="Vector_28" d="M65.025 25.3301H53.0646C50.1029 25.3301 47.7021 22.9292 47.7021 19.9676V12.2987C47.7021 6.03434 52.7804 0.956055 59.0448 0.956055C65.3092 0.956055 70.3875 6.03434 70.3875 12.2987V19.9676C70.3875 22.9293 67.9867 25.3301 65.025 25.3301Z" fill="#355F7F"/>
<path id="Vector_29" d="M59.0449 0.956055C58.2412 0.956055 57.4576 1.0409 56.7012 1.1998C61.8407 2.2798 65.7001 6.83793 65.7001 12.2987V19.9678C65.7001 22.9295 63.2991 25.3303 60.3376 25.3303H65.0251C67.9868 25.3303 70.3876 22.9293 70.3876 19.9678V12.2987C70.3876 6.03434 65.3093 0.956055 59.0449 0.956055Z" fill="#305972"/>
<path id="Vector_30" d="M43.1992 50.5413V32.0293C43.1992 29.4736 44.7552 27.1754 47.128 26.2263L52.9534 23.8961C54.1398 23.4216 54.9178 22.2725 54.9178 20.9946V18.4229H63.1713V20.9946C63.1713 22.2724 63.9492 23.4214 65.1356 23.8961L70.9611 26.2263C73.3339 27.1755 74.8898 29.4736 74.8898 32.0293V50.5411C74.8898 51.8355 73.8405 52.8849 72.5461 52.8849H45.543C44.2484 52.885 43.1992 51.8357 43.1992 50.5413Z" fill="#ACA6D6"/>
<g id="Group_10">
<path id="Vector_31" d="M61.5879 26.5115L66.7354 28.5706C69.1082 29.5196 70.6641 31.8179 70.6641 34.3736V48.892H74.8899V32.0298C74.8899 29.4742 73.334 27.1759 70.9612 26.2268L65.4796 24.0342L61.5879 26.5115Z" fill="#978ECB"/>
</g>
<path id="Vector_32" d="M74.8906 48.8916H69.0312V52.2991C69.0312 53.9171 70.343 55.2288 71.9609 55.2288C73.5789 55.2288 74.8906 53.9171 74.8906 52.2991V48.8916Z" fill="#FFCEBF"/>
<path id="Vector_33" d="M70.6641 48.8916V54.9235C71.0552 55.1171 71.4942 55.2288 71.9602 55.2288C73.5781 55.2288 74.8898 53.9171 74.8898 52.2991V48.8916H70.6641Z" fill="#FFB09E"/>
<path id="Vector_34" d="M46.1289 55.2288C47.7469 55.2288 49.0586 53.9171 49.0586 52.2991V48.8916H43.1992V52.2991C43.1992 53.9171 44.5109 55.2288 46.1289 55.2288Z" fill="#FFCEBF"/>
<g id="Group_11">
<path id="Vector_35" d="M67.8594 52.4072C67.212 52.4072 66.6875 51.8827 66.6875 51.2354V37.1729C66.6875 36.5255 67.212 36.001 67.8594 36.001C68.5067 36.001 69.0312 36.5255 69.0312 37.1729V51.2354C69.0312 51.8827 68.5067 52.4072 67.8594 52.4072Z" fill="#978ECB"/>
</g>
<g id="Group_12">
<path id="Vector_36" d="M50.2305 52.4072C49.5831 52.4072 49.0586 51.8827 49.0586 51.2354V37.1729C49.0586 36.5255 49.5831 36.001 50.2305 36.001C50.8778 36.001 51.4023 36.5255 51.4023 37.1729V51.2354C51.4023 51.8827 50.8777 52.4072 50.2305 52.4072Z" fill="#978ECB"/>
</g>
<path id="Vector_37" d="M49.0586 47.0439H69.0306V55.2289H49.0586V47.0439Z" fill="#B0E6A0"/>
<path id="Vector_38" d="M64.3438 47.0439H69.0312V55.2289H64.3438V47.0439Z" fill="#8DDAA7"/>
<g id="Group_13">
<g id="Group_14">
<path id="Vector_39" d="M69.031 76.2683H61.3887V55.0564C61.3887 52.9461 63.0995 51.2354 65.2098 51.2354C67.3201 51.2354 69.0309 52.9461 69.0309 55.0564V76.2683H69.031Z" fill="#FFCEBF"/>
<path id="Vector_40" d="M65.21 51.2354C64.3264 51.2354 63.5134 51.5361 62.8662 52.0396C63.7648 52.7388 64.3436 53.8297 64.3436 55.0564V76.2683H69.0311V55.0566C69.0311 52.9461 67.3203 51.2354 65.21 51.2354Z" fill="#FFB09E"/>
<path id="Vector_41" d="M68.9482 78.6123H61.4713C60.7785 78.6123 60.2168 78.0506 60.2168 77.3578C60.2168 75.4618 61.7538 73.9248 63.6498 73.9248H66.7699C68.6659 73.9248 70.2029 75.4618 70.2029 77.3578C70.2027 78.0506 69.641 78.6123 68.9482 78.6123Z" fill="#554E56"/>
<path id="Vector_42" d="M66.77 73.9248H63.6498C63.3801 73.9248 63.1179 73.957 62.8662 74.0157C64.3843 74.3704 65.5154 75.7315 65.5154 77.3578C65.5154 78.0507 64.9537 78.6123 64.2609 78.6123H68.9484C69.6414 78.6123 70.2029 78.0506 70.2029 77.3578C70.2029 75.4617 68.6659 73.9248 66.77 73.9248Z" fill="#433F43"/>
</g>
<g id="Group_15">
<path id="Vector_43" d="M56.7009 76.2683H49.0586V55.0564C49.0586 52.9461 50.7694 51.2354 52.8797 51.2354C54.99 51.2354 56.7008 52.9461 56.7008 55.0564L56.7009 76.2683Z" fill="#FFCEBF"/>
<path id="Vector_44" d="M52.8799 51.2354C51.9963 51.2354 51.1833 51.5361 50.5361 52.0396C51.4347 52.7388 52.0135 53.8297 52.0135 55.0564V76.2683H56.701V55.0566C56.701 52.9461 54.9902 51.2354 52.8799 51.2354Z" fill="#FFB09E"/>
<path id="Vector_45" d="M56.6181 78.6123H49.1413C48.4484 78.6123 47.8867 78.0506 47.8867 77.3578C47.8867 75.4618 49.4238 73.9248 51.3197 73.9248H54.4398C56.3358 73.9248 57.8728 75.4618 57.8728 77.3578C57.8727 78.0506 57.3109 78.6123 56.6181 78.6123Z" fill="#554E56"/>
<path id="Vector_46" d="M54.4399 73.9248H51.3197C51.05 73.9248 50.7879 73.957 50.5361 74.0157C52.0543 74.3704 53.1853 75.7315 53.1853 77.3578C53.1853 78.0507 52.6236 78.6123 51.9308 78.6123H56.6183C57.3113 78.6123 57.8728 78.0506 57.8728 77.3578C57.8727 75.4617 56.3358 73.9248 54.4399 73.9248Z" fill="#433F43"/>
</g>
</g>
<path id="Vector_47" d="M59.0445 26.8937C61.5977 26.8937 63.8927 25.7899 65.4797 24.0341L63.5731 23.8965C62.3867 23.4219 61.6088 22.2729 61.6088 20.9951V18.4233H54.9178V20.9951C54.9178 22.2729 54.1398 23.4219 52.9534 23.8965L52.6094 24.0341C54.1964 25.7899 56.4914 26.8937 59.0445 26.8937Z" fill="#FFCEBF"/>
<path id="Vector_48" d="M60.9097 26.2402L61.5878 26.5115C63.1031 26.0469 64.443 25.181 65.4795 24.0341C64.153 23.5527 63.165 22.4733 63.1711 20.9951V18.4233H58.9453V23.3388C58.9452 24.6166 59.7231 25.7657 60.9097 26.2402Z" fill="#FFB09E"/>
<path id="Vector_49" d="M58.9457 21.1841C55.3159 21.1311 52.3896 18.1722 52.3896 14.5297V11.5142C52.3896 11.1689 52.6693 10.8872 53.0148 10.8894C54.2228 10.8969 55.8162 10.7684 57.5981 10.2369C58.9711 9.82735 60.1011 9.28422 60.9734 8.77876C61.2143 8.63907 61.519 8.67907 61.7178 8.87407C62.1142 9.26297 62.6711 9.72047 63.4078 10.1111C64.0759 10.4653 64.7037 10.6648 65.2121 10.78C65.4976 10.8447 65.7 11.0967 65.7 11.3894V14.5295C65.7 16.6463 64.7118 18.5322 63.1715 19.7511C62.7689 20.0697 62.1239 17.9989 61.4578 18.2186C60.2473 18.6178 58.967 21.1844 58.9457 21.1841Z" fill="#FFCEBF"/>
<path id="Vector_50" d="M65.2117 10.7799C64.7033 10.6648 64.0755 10.4654 63.4073 10.111C62.6698 9.72009 62.1127 9.26213 61.7163 8.87306C61.5177 8.67822 61.2139 8.63884 60.9733 8.77838C60.2877 9.17588 59.4402 9.59541 58.4431 9.95634C58.5325 10.0088 58.6245 10.0606 58.7198 10.1112C59.1512 10.3399 59.5659 10.5042 59.9423 10.6227C60.5809 10.824 61.012 11.4192 61.012 12.0887V14.5296C61.0459 14.8443 61.2245 16.7999 59.8009 18.3578C58.6008 19.6709 56.7195 20.2007 54.918 19.7498C55.4591 20.1709 56.3764 20.761 57.6377 21.0351C58.1619 21.149 58.6394 21.1853 59.0444 21.1849C62.72 21.1849 65.6995 18.2053 65.6995 14.5298V11.3893C65.6995 11.0967 65.4972 10.8446 65.2117 10.7799Z" fill="#FFB09E"/>
</g>
<g id="Group_16">
<path id="Vector_51" d="M79.5781 79.7842H1.92188C1.27453 79.7842 0.75 79.2596 0.75 78.6123C0.75 77.965 1.27453 77.4404 1.92188 77.4404H79.5781C80.2255 77.4404 80.75 77.965 80.75 78.6123C80.75 79.2596 80.2255 79.7842 79.5781 79.7842Z" fill="#C59191"/>
</g>
</g>
</g>
<defs>
<clipPath id="clip0_375_3383">
<rect width="80" height="80" fill="white" transform="translate(0.75 0.370117)"/>
</clipPath>
</defs>
</svg>
