<svg width="81" height="81" viewBox="0 0 81 81" fill="none" xmlns="http://www.w3.org/2000/svg">
<g id="wedding.svg" clip-path="url(#clip0_375_3000)">
<path id="Vector" d="M66.4528 54.2175L65.2537 53.9766C64.4029 53.8056 63.7907 53.0581 63.7907 52.1903V50.4626H55.9478V52.2339C55.9478 53.1017 55.3356 53.8491 54.4848 54.0201L53.5029 54.2175V60.8125H66.4528V54.2175Z" fill="#FED9A8"/>
<path id="Vector_2" d="M60.3809 50.4626V53.6812C60.3809 54.5491 60.9929 55.2964 61.8438 55.4675L66.4523 56.3848V54.2175L65.2532 53.9766C64.4024 53.8056 63.7902 53.0581 63.7902 52.1903V50.4626H60.3809Z" fill="#F4C892"/>
<path id="Vector_3" d="M66.4512 54.2175L62.8943 55.1521C60.9821 55.6544 58.9727 55.6544 57.0605 55.1521L53.5037 54.2175L45.8527 56.4702C42.2077 57.5435 39.7051 60.8891 39.7051 64.6888V78.6692H80.2496V64.6888C80.2496 60.8891 77.747 57.5433 74.102 56.4702L66.4512 54.2175Z" fill="#4D4A5B"/>
<path id="Vector_4" d="M74.1027 56.4704L66.4517 54.2178L61.9648 55.3967L65.612 56.4706C69.257 57.5437 71.7597 60.8895 71.7597 64.6892V78.6696H80.2503V64.6892C80.2503 60.8893 77.7477 57.5436 74.1027 56.4704Z" fill="#444251"/>
<path id="Vector_5" d="M38.106 36.9693C31.9217 22.2737 21.3379 23.0826 21.1499 23.0982C20.962 23.0826 10.3781 22.2737 4.19385 36.9693C1.18276 44.1243 0.432916 50.3275 0.254479 53.4182C0.184323 54.6329 0.944479 55.7409 2.10448 56.1084L21.1499 62.14L40.1954 56.1084C41.3554 55.741 42.1156 54.6331 42.0454 53.4182C41.867 50.3275 41.117 44.1243 38.106 36.9693Z" fill="#D4FFF8"/>
<path id="Vector_6" d="M42.045 53.4182C41.8666 50.3273 41.1167 44.1242 38.1056 36.9693C31.9212 22.2737 21.3375 23.0826 21.1495 23.0982C21.0747 23.092 19.3492 22.9609 16.9102 23.7332C20.5938 24.8996 25.9062 28.1279 29.6269 36.9693C32.6378 44.1243 33.3878 50.3275 33.5663 53.4182C33.6364 54.6329 32.8762 55.741 31.7162 56.1084L16.9102 60.7973L21.1495 62.1398L40.195 56.1082C41.3548 55.7411 42.115 54.6331 42.045 53.4182Z" fill="#C6F4EB"/>
<path id="Vector_7" d="M34.0785 57.6484L27.0766 55.5868V55.5865L25.9791 55.3659C25.2004 55.2093 24.64 54.5253 24.64 53.7309V52.1497H17.4613V53.7709C17.4613 54.5653 16.901 55.2493 16.1222 55.4059L15.2235 55.5865V55.5868L8.2216 57.6484C4.88535 58.6308 2.59473 61.6931 2.59473 65.1711V78.6775H39.7057V65.1711C39.7054 61.6931 37.4147 58.6308 34.0785 57.6484Z" fill="#FED9A8"/>
<path id="Vector_8" d="M34.0788 57.6484L27.077 55.5868V55.5865L25.9795 55.3659C25.2007 55.2093 24.6404 54.5253 24.6404 53.7309V52.1497H21.1504V54.0725C21.1504 55.4156 22.0349 56.5981 23.3234 56.9775L25.6021 57.6484C28.9384 58.6308 31.229 61.6931 31.229 65.1711V78.6775H39.7057V65.1711C39.7057 61.6931 37.4151 58.6308 34.0788 57.6484Z" fill="#F4C892"/>
<path id="Vector_9" d="M21.15 30.4814C23.6534 30.4814 25.6828 28.452 25.6828 25.9486C25.6828 23.4452 23.6534 21.4158 21.15 21.4158C18.6466 21.4158 16.6172 23.4452 16.6172 25.9486C16.6172 28.452 18.6466 30.4814 21.15 30.4814Z" fill="#FF901D"/>
<g id="Group">
<path id="Vector_10" d="M33.315 44.6313H31.1787V39.3708H33.315C34.2497 39.3708 35.0075 40.1287 35.0075 41.0633V42.9388C35.0075 43.8737 34.2497 44.6313 33.315 44.6313Z" fill="#F4CFA6"/>
<path id="Vector_11" d="M8.98547 44.6313H11.1217V39.3708H8.98547C8.05078 39.3708 7.29297 40.1287 7.29297 41.0633V42.9388C7.29297 43.8737 8.05078 44.6313 8.98547 44.6313Z" fill="#F4CFA6"/>
</g>
<path id="Vector_12" d="M21.1502 52.9439C15.3011 52.9439 10.5596 48.2023 10.5596 42.3533V39.377C10.5596 33.5279 15.3011 28.7864 21.1502 28.7864C26.9993 28.7864 31.7408 33.5279 31.7408 39.377V42.3533C31.7407 48.2023 26.9991 52.9439 21.1502 52.9439Z" fill="#FED9A8"/>
<path id="Vector_13" d="M25.6824 29.8059V44.2704C25.6824 47.8587 23.8962 51.0279 21.166 52.9436C27.0076 52.9348 31.7404 48.197 31.7404 42.3534V39.3772C31.7404 35.1504 29.2632 31.5045 25.6824 29.8059Z" fill="#F4CFA2"/>
<path id="Vector_14" d="M33.6068 38.7611V38.6C33.6068 31.7203 28.0298 26.1433 21.1501 26.1433C14.2704 26.1433 8.69336 31.7203 8.69336 38.6V38.7611C8.69336 39.0978 8.96633 39.371 9.3032 39.371H10.9045C11.3305 39.371 11.7165 39.1196 11.8885 38.7297L12.7799 35.3839C13.0896 34.2216 14.5027 33.7785 15.4216 34.5546C17.7405 36.513 21.8098 39.3708 25.8107 39.3708H32.9971C33.3338 39.3708 33.6068 39.0978 33.6068 38.7611Z" fill="#FF901D"/>
<path id="Vector_15" d="M21.1505 26.1433C19.763 26.1433 18.43 26.3736 17.1836 26.7922C21.8272 28.3955 25.1639 32.8017 25.1639 37.9902V39.3449C25.3797 39.361 25.5955 39.3708 25.8111 39.3708H32.9975C33.3342 39.3708 33.6073 39.0978 33.6073 38.761V38.5999C33.607 31.7205 28.03 26.1433 21.1505 26.1433Z" fill="#FF6D3A"/>
<path id="Vector_16" d="M33.9582 66.0654C33.9582 65.7168 33.8482 65.3764 33.6405 65.0964C32.373 63.387 30.3413 62.2786 28.0498 62.2786C25.8988 62.2786 23.9768 63.2548 22.7012 64.7883C21.8902 65.7631 20.4098 65.7631 19.5988 64.7883C18.3232 63.2548 16.4012 62.2786 14.2502 62.2786C11.9587 62.2786 9.92695 63.387 8.65945 65.0964C8.4518 65.3764 8.3418 65.7168 8.3418 66.0654V78.6773H33.9584V66.0654H33.9582Z" fill="#FFFCFD"/>
<path id="Vector_17" d="M33.6402 65.0964C32.3727 63.387 30.341 62.2786 28.0494 62.2786C26.453 62.2786 24.9832 62.8173 23.8096 63.7215C24.3208 64.1154 24.7768 64.5778 25.1614 65.0964C25.3691 65.3764 25.4791 65.7168 25.4791 66.0654V78.6773H33.9578V66.0654C33.9578 65.717 33.8479 65.3764 33.6402 65.0964Z" fill="#F2F2F2"/>
<g id="Group_2">
<path id="Vector_18" d="M47.8133 78.6693V73.857V65.8737C47.8133 65.206 47.2721 64.6648 46.6044 64.6648C45.9368 64.6648 45.3955 65.206 45.3955 65.8737V73.857V78.6693H47.8133Z" fill="#3A3847"/>
<path id="Vector_19" d="M74.3836 78.6693V65.8737C74.3836 65.206 73.8424 64.6648 73.1747 64.6648C72.5071 64.6648 71.9658 65.206 71.9658 65.8737V78.6693H74.3836Z" fill="#3A3847"/>
</g>
<g id="Group_3">
<path id="Vector_20" d="M72.5152 42.9101H70.1582V37.4768H72.5152C73.4807 37.4768 74.2634 38.2595 74.2634 39.2249V41.1621C74.2632 42.1274 73.4805 42.9101 72.5152 42.9101Z" fill="#F4CFA6"/>
<path id="Vector_21" d="M47.4395 42.9101H49.7966V37.4768H47.4395C46.4741 37.4768 45.6914 38.2595 45.6914 39.2249V41.1621C45.6914 42.1274 46.4741 42.9101 47.4395 42.9101Z" fill="#F4CFA6"/>
</g>
<path id="Vector_22" d="M59.9775 51.4956C53.9364 51.4956 49.0391 46.5983 49.0391 40.5572V37.4831C49.0391 31.442 53.9364 26.5447 59.9775 26.5447C66.0186 26.5447 70.9159 31.442 70.9159 37.4831V40.5572C70.9159 46.5983 66.0187 51.4956 59.9775 51.4956Z" fill="#FFDFB8"/>
<path id="Vector_23" d="M64.8586 27.6941V42.8225C64.8586 46.405 63.078 49.5696 60.3555 51.4861C66.2216 51.2869 70.9166 46.4719 70.9166 40.5572V37.4832C70.9166 33.1964 68.4494 29.4878 64.8586 27.6941Z" fill="#F4CFA2"/>
<path id="Vector_24" d="M45.5105 2.88232C43.3714 2.88232 41.4672 3.88717 40.2437 5.45061C39.0203 3.88717 37.1161 2.88232 34.977 2.88232C31.2855 2.88232 28.293 5.87482 28.293 9.56639C28.293 17.9644 40.2437 22.6408 40.2437 22.6408C40.2437 22.6408 52.1945 17.9644 52.1945 9.56639C52.1945 5.87482 49.2019 2.88232 45.5105 2.88232Z" fill="#FF6991"/>
<path id="Vector_25" d="M45.5109 2.88232C43.9695 2.88232 42.5513 3.40561 41.4208 4.28217C41.9297 4.5567 42.4041 4.8992 42.8311 5.30201C42.8597 5.32764 42.8869 5.35514 42.915 5.38154C42.9391 5.40498 42.9631 5.42826 42.9869 5.45217C43.1253 5.58842 43.258 5.73154 43.3805 5.88514C43.7403 6.31779 44.0516 6.80279 44.3008 7.33685C46.9383 12.9898 42.7327 19.569 40.3945 22.5798C41.7687 22.0081 52.1953 17.4112 52.1953 9.5667C52.195 5.87482 49.2023 2.88232 45.5109 2.88232Z" fill="#FF507E"/>
<path id="Vector_26" d="M53.5043 54.2175L50.2332 59.9935C50.1487 60.1427 50.1617 60.3278 50.2659 60.4639L59.9782 75.5071L53.5043 54.2175Z" fill="#666277"/>
<path id="Vector_27" d="M71.7095 37.4768H72.5154C72.7717 37.4768 73.0143 37.5334 73.2337 37.6325V34.8525C73.2337 28.5593 68.1321 23.4578 61.839 23.4578H58.1164C51.8232 23.4578 46.7217 28.5593 46.7217 34.8525V37.6325C46.9411 37.5334 47.1837 37.4768 47.44 37.4768H48.2459H49.0393C49.0401 36.146 49.2787 34.871 49.7146 33.6917C54.5514 32.3212 59.4673 36.0614 64.8134 36.0614C67.4836 36.0614 69.3062 35.4639 70.5389 34.7331L70.5673 34.7328C70.7945 35.6096 70.9156 36.5292 70.9162 37.4768H71.7095Z" fill="#FF901D"/>
<path id="Vector_28" d="M71.7096 37.4768C71.7097 37.4768 71.7097 37.4768 71.7096 37.4768H72.5155C72.7718 37.4768 73.0144 37.5334 73.2338 37.6325V34.8525C73.2338 28.5593 68.1322 23.4578 61.8391 23.4578H58.1164C57.301 23.4578 56.5061 23.5451 55.7393 23.7079C60.891 24.8015 64.7568 29.3748 64.7568 34.8525V36.0601C64.7757 36.0603 64.7944 36.0614 64.8133 36.0614C67.4835 36.0614 69.3061 35.4639 70.5388 34.7331L70.5672 34.7328C70.7944 35.6096 70.9155 36.5292 70.9161 37.4768H71.7096Z" fill="#FF6D3A"/>
<path id="Vector_29" d="M66.4516 54.2175L62.8766 55.1567C60.9762 55.656 58.9792 55.656 57.0789 55.1567L53.5039 54.2175L59.9777 75.5072L66.4516 54.2175Z" fill="#FFFCFD"/>
<path id="Vector_30" d="M61.2189 61.3105H58.7272L57.9219 67.1296L59.9772 73.1363L62.0322 67.1307L61.2189 61.3105Z" fill="#F33A3A"/>
<path id="Vector_31" d="M59.9778 58.6089L57.3057 59.8801L58.6125 62.1442H61.3432L62.6502 59.8801L59.9778 58.6089Z" fill="#E25959"/>
<path id="Vector_32" d="M66.4514 54.2175L69.7225 59.9935C69.8071 60.1427 69.7941 60.3278 69.6899 60.4639L59.9775 75.5071L66.4514 54.2175Z" fill="#666277"/>
<path id="Vector_33" d="M61.2195 61.3105H58.7278L57.7686 68.2418L59.9778 75.5073L62.1878 68.2396L61.2195 61.3105Z" fill="#F33A3A"/>
<path id="Vector_34" d="M59.9778 57.4402L57.3057 59.88L58.6125 62.1441H61.3432L62.6502 59.88L59.9778 57.4402Z" fill="#E25959"/>
<g id="Group_4">
<path id="Vector_35" d="M16.5857 43.3851C16.1857 43.3851 15.8604 43.0598 15.8604 42.6598V41.3076C15.8604 40.9076 16.1857 40.5823 16.5857 40.5823C16.9857 40.5823 17.311 40.9076 17.311 41.3076V42.6598C17.311 43.0598 16.9857 43.3851 16.5857 43.3851Z" fill="#4D4A5B"/>
<path id="Vector_36" d="M25.7146 43.3851C25.3146 43.3851 24.9893 43.0598 24.9893 42.6598V41.3076C24.9893 40.9076 25.3146 40.5823 25.7146 40.5823C26.1146 40.5823 26.4399 40.9076 26.4399 41.3076V42.6598C26.4399 43.0598 26.1146 43.3851 25.7146 43.3851Z" fill="#4D4A5B"/>
</g>
<path id="Vector_37" d="M21.1502 49.6802C19.8507 49.6802 18.69 49.1455 18.0455 48.2497C17.8119 47.9252 17.886 47.471 18.2107 47.2374C18.3349 47.148 18.481 47.1008 18.6333 47.1008C18.8667 47.1008 19.0871 47.2136 19.2232 47.4025C19.5847 47.9049 20.3411 48.2296 21.1502 48.2296C21.9592 48.2296 22.7157 47.905 23.0772 47.4027C23.2132 47.2136 23.4336 47.1008 23.6669 47.1008C23.8192 47.1008 23.9653 47.1482 24.0897 47.2375C24.4142 47.4711 24.4885 47.9254 24.2549 48.2499C23.6103 49.1455 22.4497 49.6802 21.1502 49.6802Z" fill="#FF9FAF"/>
<g id="Group_5">
<path id="Vector_38" d="M55.2634 41.5991C54.8634 41.5991 54.5381 41.2738 54.5381 40.8738V39.4773C54.5381 39.0773 54.8634 38.752 55.2634 38.752C55.6634 38.752 55.9887 39.0773 55.9887 39.4773V40.8738C55.9889 41.2737 55.6634 41.5991 55.2634 41.5991Z" fill="#4D4A5B"/>
<path id="Vector_39" d="M64.6921 41.5991C64.2921 41.5991 63.9668 41.2738 63.9668 40.8738V39.4773C63.9668 39.0773 64.2921 38.752 64.6921 38.752C65.0921 38.752 65.4174 39.0773 65.4174 39.4773V40.8738C65.4176 41.2737 65.0921 41.5991 64.6921 41.5991Z" fill="#4D4A5B"/>
</g>
<path id="Vector_40" d="M59.9778 48.1009C58.6433 48.1009 57.4517 47.5523 56.7906 46.6334C56.557 46.3088 56.6311 45.8545 56.9558 45.6209C57.08 45.5316 57.2261 45.4844 57.3784 45.4844C57.6119 45.4844 57.8322 45.5972 57.9683 45.7863C58.3459 46.3111 59.1348 46.6503 59.978 46.6503C60.8211 46.6503 61.61 46.3111 61.9876 45.7863C62.1236 45.5973 62.3441 45.4845 62.5773 45.4845C62.7297 45.4845 62.8758 45.5319 63.0001 45.6213C63.3247 45.8548 63.3989 46.3091 63.1653 46.6336C62.5039 47.5523 61.3123 48.1009 59.9778 48.1009Z" fill="#C699A2"/>
</g>
<defs>
<clipPath id="clip0_375_3000">
<rect width="80" height="80" fill="white" transform="translate(0.25 0.780029)"/>
</clipPath>
</defs>
</svg>
